<svg width="154" height="52" viewBox="0 0 154 52" fill="none" xmlns="http://www.w3.org/2000/svg">
<rect x="8" y="8" width="137.392" height="36" rx="8" fill="url(#paint0_linear_75_11)"/>
<path d="M33.3027 22.9632C33.3027 21.506 32.8094 20.2973 31.9672 19.3498C32.0587 19.1448 32.154 18.8697 32.2013 18.524C32.3098 17.7355 32.1817 17.2624 32.0732 16.7993C31.9647 16.3363 31.8367 16.0108 31.8367 16.0108C31.8367 16.0108 31.255 15.9515 30.7623 16.1193C30.2697 16.2871 29.8458 16.4152 29.2345 16.7798C28.9487 16.9501 28.661 17.1368 28.4333 17.2882C27.4599 17.0182 26.3894 16.8795 25.2634 16.8795C24.1272 16.8795 23.0473 17.0189 22.0669 17.2908C21.8386 17.1387 21.549 16.9507 21.2614 16.7792C20.6501 16.4145 20.2262 16.2865 19.7335 16.1187C19.2408 15.9509 18.6592 16.0102 18.6592 16.0102C18.6592 16.0102 18.5311 16.3357 18.4226 16.7987C18.3141 17.2617 18.1861 17.7349 18.2946 18.5234C18.3431 18.8779 18.4416 19.158 18.5355 19.3643C17.7092 20.3061 17.2247 21.5072 17.2247 22.9626C17.2247 26.7369 19.2635 28.4597 22.9785 28.9145C22.5451 29.3725 22.2543 29.9591 22.1565 30.6121C21.9124 30.7193 21.631 30.8202 21.3604 30.8606C20.664 30.966 19.9278 30.8606 19.5733 30.6505C19.2187 30.4405 18.798 29.9673 18.4826 29.5068C18.2163 29.1182 17.8322 28.6672 17.4839 28.5082C17.0241 28.2982 16.5768 28.2193 16.3276 28.2584C16.0778 28.2982 15.9599 28.4817 16.0122 28.6136C16.0646 28.7448 16.3144 28.9422 16.5774 29.0867C16.8405 29.2312 17.248 29.6254 17.4846 30.0065C17.7483 30.4316 17.8 30.677 18.0233 31.1628C18.1804 31.5047 18.7179 31.9318 19.1008 32.1614C19.4294 32.3588 20.0861 32.4711 20.7965 32.5033C21.0418 32.5146 21.6216 32.4427 22.1105 32.3733V34.739C22.1105 35.1421 21.7414 35.4487 21.3592 35.378C22.5861 35.7906 23.8964 36 25.2634 36C26.6298 36 27.94 35.7906 29.1682 35.3793C28.7866 35.4493 28.4175 35.1427 28.4175 34.7396V31.0782C28.4175 30.2399 28.0851 29.4822 27.5514 28.9176C31.2393 28.4748 33.3027 26.793 33.3027 22.9632ZM17.2133 28.8886C17.1162 28.8388 17.0638 28.7467 17.0966 28.6817C17.1294 28.6167 17.2354 28.6047 17.3325 28.6546C17.4297 28.7044 17.4821 28.7965 17.4493 28.8615C17.4164 28.9265 17.3105 28.9385 17.2133 28.8886ZM17.9779 29.3649C17.9268 29.4204 17.817 29.4027 17.7325 29.3258C17.648 29.2488 17.6208 29.141 17.6719 29.0854C17.723 29.0299 17.8328 29.0476 17.9173 29.1246C18.0019 29.2015 18.029 29.3094 17.9779 29.3649ZM18.4535 30.1534C18.3892 30.1989 18.2801 30.1566 18.21 30.0588C18.14 29.961 18.1356 29.8443 18.1999 29.7989C18.2643 29.7535 18.3734 29.7958 18.4434 29.8935C18.5128 29.9913 18.5179 30.108 18.4535 30.1534ZM19.1367 30.7471C19.0932 30.8177 18.9696 30.8209 18.8611 30.7546C18.7526 30.6884 18.6996 30.5774 18.7431 30.5067C18.7866 30.4361 18.9103 30.4329 19.0188 30.4991C19.1273 30.5654 19.1803 30.6764 19.1367 30.7471ZM19.7827 31.3281C19.6483 31.3117 19.5487 31.2277 19.56 31.1407C19.5707 31.0536 19.6887 30.9969 19.8224 31.0133C19.9568 31.0297 20.0565 31.1136 20.0451 31.2006C20.0344 31.287 19.9171 31.3445 19.7827 31.3281ZM20.8242 31.4788C20.681 31.4706 20.5694 31.3886 20.575 31.2965C20.5807 31.2044 20.7012 31.1356 20.8444 31.1438C20.9876 31.152 21.0993 31.2341 21.0936 31.3262C21.0879 31.4189 20.9674 31.487 20.8242 31.4788ZM21.807 31.3804C21.6544 31.3804 21.5307 31.3009 21.5307 31.2031C21.5307 31.1054 21.6544 31.0259 21.807 31.0259C21.9597 31.0259 22.0834 31.1054 22.0834 31.2031C22.0834 31.3009 21.9591 31.3804 21.807 31.3804Z" fill="white"/>
<path d="M43.8828 29.9888V26.1812C43.8828 25.8895 43.8236 25.6366 43.7051 25.4224C43.5911 25.2036 43.418 25.035 43.1855 24.9165C42.9531 24.798 42.666 24.7388 42.3242 24.7388C42.0052 24.7388 41.7249 24.7935 41.4834 24.9028C41.2464 25.0122 41.0596 25.1558 40.9229 25.3335C40.7907 25.5112 40.7246 25.7026 40.7246 25.9077H39.46C39.46 25.6434 39.5283 25.3813 39.665 25.1216C39.8018 24.8618 39.9977 24.6271 40.2529 24.4175C40.5127 24.2033 40.8226 24.0347 41.1826 23.9116C41.5472 23.784 41.9528 23.7202 42.3994 23.7202C42.9372 23.7202 43.4111 23.8114 43.8213 23.9937C44.236 24.1759 44.5596 24.4517 44.792 24.8208C45.029 25.1854 45.1475 25.6434 45.1475 26.1948V29.6401C45.1475 29.8862 45.168 30.1483 45.209 30.4263C45.2546 30.7043 45.3206 30.9435 45.4072 31.144V31.2534H44.0879C44.0241 31.1076 43.974 30.9139 43.9375 30.6724C43.901 30.4263 43.8828 30.1984 43.8828 29.9888ZM44.1016 26.769L44.1152 27.6577H42.8369C42.4769 27.6577 42.1556 27.6873 41.873 27.7466C41.5905 27.8013 41.3535 27.8856 41.1621 27.9995C40.9707 28.1134 40.8249 28.257 40.7246 28.4302C40.6243 28.5988 40.5742 28.797 40.5742 29.0249C40.5742 29.2573 40.6266 29.4692 40.7314 29.6606C40.8363 29.8521 40.9935 30.0047 41.2031 30.1187C41.4173 30.228 41.6794 30.2827 41.9893 30.2827C42.3766 30.2827 42.7184 30.2007 43.0146 30.0366C43.3109 29.8726 43.5456 29.672 43.7188 29.4351C43.8965 29.1981 43.9922 28.9679 44.0059 28.7446L44.5459 29.353C44.514 29.5444 44.4274 29.7563 44.2861 29.9888C44.1449 30.2212 43.9557 30.4445 43.7188 30.6587C43.4863 30.8683 43.2083 31.0438 42.8848 31.1851C42.5658 31.3218 42.2057 31.3901 41.8047 31.3901C41.3034 31.3901 40.8636 31.2922 40.4854 31.0962C40.1117 30.9002 39.82 30.6382 39.6104 30.3101C39.4053 29.9774 39.3027 29.606 39.3027 29.1958C39.3027 28.7993 39.3802 28.4507 39.5352 28.1499C39.6901 27.8446 39.9134 27.5916 40.2051 27.3911C40.4967 27.186 40.8477 27.0311 41.2578 26.9263C41.668 26.8215 42.126 26.769 42.6318 26.769H44.1016Z" fill="white"/>
<path d="M48.5107 20.7534V31.2534H47.2393V20.7534H48.5107Z" fill="white"/>
<path d="M53.6104 31.3901C53.0954 31.3901 52.6283 31.3035 52.209 31.1304C51.7943 30.9526 51.4365 30.7043 51.1357 30.3853C50.8395 30.0662 50.6117 29.688 50.4521 29.2505C50.2926 28.813 50.2129 28.3345 50.2129 27.8149V27.5278C50.2129 26.9263 50.3018 26.3908 50.4795 25.9214C50.6572 25.4474 50.8988 25.0464 51.2041 24.7183C51.5094 24.3901 51.8558 24.1418 52.2432 23.9731C52.6305 23.8045 53.0316 23.7202 53.4463 23.7202C53.9749 23.7202 54.4307 23.8114 54.8135 23.9937C55.2008 24.1759 55.5176 24.4312 55.7637 24.7593C56.0098 25.0828 56.1921 25.4657 56.3105 25.9077C56.429 26.3452 56.4883 26.8237 56.4883 27.3433V27.9106H50.9648V26.8784H55.2236V26.7827C55.2054 26.4546 55.137 26.1356 55.0186 25.8257C54.9046 25.5158 54.7223 25.2606 54.4717 25.0601C54.221 24.8595 53.8792 24.7593 53.4463 24.7593C53.1592 24.7593 52.8949 24.8208 52.6533 24.9438C52.4118 25.0623 52.2044 25.2401 52.0312 25.4771C51.8581 25.714 51.7236 26.0034 51.6279 26.3452C51.5322 26.687 51.4844 27.0812 51.4844 27.5278V27.8149C51.4844 28.1659 51.5322 28.4963 51.6279 28.8062C51.7282 29.1115 51.8717 29.3804 52.0586 29.6128C52.25 29.8452 52.4801 30.0275 52.749 30.1597C53.0225 30.2918 53.3324 30.3579 53.6787 30.3579C54.1253 30.3579 54.5036 30.2668 54.8135 30.0845C55.1234 29.9022 55.3945 29.6584 55.627 29.353L56.3926 29.9614C56.2331 30.203 56.0303 30.4331 55.7842 30.6519C55.5381 30.8706 55.235 31.0483 54.875 31.1851C54.5195 31.3218 54.098 31.3901 53.6104 31.3901Z" fill="white"/>
<path d="M58.8193 23.8569L60.4395 26.5503L62.0801 23.8569H63.5635L61.1436 27.5073L63.6387 31.2534H62.1758L60.4668 28.478L58.7578 31.2534H57.2881L59.7764 27.5073L57.3633 23.8569H58.8193Z" fill="white"/>
<path d="M66.7969 31.2534H65.5322V23.0776C65.5322 22.5444 65.6279 22.0955 65.8193 21.731C66.0153 21.3618 66.2956 21.0838 66.6602 20.897C67.0247 20.7056 67.4577 20.6099 67.959 20.6099C68.1048 20.6099 68.2507 20.619 68.3965 20.6372C68.5469 20.6554 68.6927 20.6828 68.834 20.7192L68.7656 21.7515C68.6699 21.7287 68.5605 21.7127 68.4375 21.7036C68.319 21.6945 68.2005 21.6899 68.082 21.6899C67.8132 21.6899 67.5807 21.7446 67.3848 21.854C67.1934 21.9588 67.0475 22.1138 66.9473 22.3188C66.847 22.5239 66.7969 22.7769 66.7969 23.0776V31.2534ZM68.3691 23.8569V24.8276H64.3633V23.8569H68.3691Z" fill="white"/>
<path d="M74.1387 29.9888V26.1812C74.1387 25.8895 74.0794 25.6366 73.9609 25.4224C73.847 25.2036 73.6738 25.035 73.4414 24.9165C73.209 24.798 72.9219 24.7388 72.5801 24.7388C72.2611 24.7388 71.9808 24.7935 71.7393 24.9028C71.5023 25.0122 71.3154 25.1558 71.1787 25.3335C71.0465 25.5112 70.9805 25.7026 70.9805 25.9077H69.7158C69.7158 25.6434 69.7842 25.3813 69.9209 25.1216C70.0576 24.8618 70.2536 24.6271 70.5088 24.4175C70.7686 24.2033 71.0785 24.0347 71.4385 23.9116C71.8031 23.784 72.2087 23.7202 72.6553 23.7202C73.193 23.7202 73.667 23.8114 74.0771 23.9937C74.4919 24.1759 74.8154 24.4517 75.0479 24.8208C75.2848 25.1854 75.4033 25.6434 75.4033 26.1948V29.6401C75.4033 29.8862 75.4238 30.1483 75.4648 30.4263C75.5104 30.7043 75.5765 30.9435 75.6631 31.144V31.2534H74.3438C74.2799 31.1076 74.2298 30.9139 74.1934 30.6724C74.1569 30.4263 74.1387 30.1984 74.1387 29.9888ZM74.3574 26.769L74.3711 27.6577H73.0928C72.7327 27.6577 72.4115 27.6873 72.1289 27.7466C71.8464 27.8013 71.6094 27.8856 71.418 27.9995C71.2266 28.1134 71.0807 28.257 70.9805 28.4302C70.8802 28.5988 70.8301 28.797 70.8301 29.0249C70.8301 29.2573 70.8825 29.4692 70.9873 29.6606C71.0921 29.8521 71.2493 30.0047 71.459 30.1187C71.6732 30.228 71.9352 30.2827 72.2451 30.2827C72.6325 30.2827 72.9743 30.2007 73.2705 30.0366C73.5667 29.8726 73.8014 29.672 73.9746 29.4351C74.1523 29.1981 74.248 28.9679 74.2617 28.7446L74.8018 29.353C74.7699 29.5444 74.6833 29.7563 74.542 29.9888C74.4007 30.2212 74.2116 30.4445 73.9746 30.6587C73.7422 30.8683 73.4642 31.0438 73.1406 31.1851C72.8216 31.3218 72.4616 31.3901 72.0605 31.3901C71.5592 31.3901 71.1195 31.2922 70.7412 31.0962C70.3675 30.9002 70.0758 30.6382 69.8662 30.3101C69.6611 29.9774 69.5586 29.606 69.5586 29.1958C69.5586 28.7993 69.6361 28.4507 69.791 28.1499C69.946 27.8446 70.1693 27.5916 70.4609 27.3911C70.7526 27.186 71.1035 27.0311 71.5137 26.9263C71.9238 26.8215 72.3818 26.769 72.8877 26.769H74.3574Z" fill="white"/>
<path d="M78.7666 20.7534V31.2534H77.4951V20.7534H78.7666Z" fill="white"/>
<path d="M83.7568 30.3511C84.0576 30.3511 84.3356 30.2896 84.5908 30.1665C84.846 30.0435 85.0557 29.8748 85.2197 29.6606C85.3838 29.4419 85.4772 29.1935 85.5 28.9155H86.7031C86.6803 29.353 86.5322 29.7609 86.2588 30.1392C85.9899 30.5129 85.6367 30.8159 85.1992 31.0483C84.7617 31.2762 84.2809 31.3901 83.7568 31.3901C83.2008 31.3901 82.7155 31.2922 82.3008 31.0962C81.8906 30.9002 81.5488 30.6313 81.2754 30.2896C81.0065 29.9478 80.8037 29.5558 80.667 29.1138C80.5348 28.6672 80.4688 28.1955 80.4688 27.6987V27.4116C80.4688 26.9149 80.5348 26.4455 80.667 26.0034C80.8037 25.5568 81.0065 25.1626 81.2754 24.8208C81.5488 24.479 81.8906 24.2101 82.3008 24.0142C82.7155 23.8182 83.2008 23.7202 83.7568 23.7202C84.3356 23.7202 84.8415 23.8387 85.2744 24.0757C85.7074 24.3081 86.0469 24.6271 86.293 25.0327C86.5436 25.4338 86.6803 25.8895 86.7031 26.3999H85.5C85.4772 26.0946 85.3906 25.8188 85.2402 25.5728C85.0944 25.3267 84.8939 25.1307 84.6387 24.9849C84.388 24.8345 84.0941 24.7593 83.7568 24.7593C83.3695 24.7593 83.0436 24.8368 82.7793 24.9917C82.5195 25.1421 82.3122 25.3472 82.1572 25.6069C82.0068 25.8621 81.8975 26.147 81.8291 26.4614C81.7653 26.7713 81.7334 27.0881 81.7334 27.4116V27.6987C81.7334 28.0223 81.7653 28.3413 81.8291 28.6558C81.8929 28.9702 82 29.255 82.1504 29.5103C82.3053 29.7655 82.5127 29.9705 82.7725 30.1255C83.0368 30.2759 83.3649 30.3511 83.7568 30.3511Z" fill="white"/>
<path d="M87.79 27.6372V27.48C87.79 26.9468 87.8675 26.4523 88.0225 25.9966C88.1774 25.5363 88.4007 25.1375 88.6924 24.8003C88.984 24.4585 89.3372 24.1942 89.752 24.0073C90.1667 23.8159 90.6315 23.7202 91.1465 23.7202C91.666 23.7202 92.1331 23.8159 92.5479 24.0073C92.9671 24.1942 93.3226 24.4585 93.6143 24.8003C93.9105 25.1375 94.1361 25.5363 94.291 25.9966C94.446 26.4523 94.5234 26.9468 94.5234 27.48V27.6372C94.5234 28.1704 94.446 28.6649 94.291 29.1206C94.1361 29.5763 93.9105 29.9751 93.6143 30.3169C93.3226 30.6541 92.9694 30.9185 92.5547 31.1099C92.1445 31.2967 91.6797 31.3901 91.1602 31.3901C90.6406 31.3901 90.1735 31.2967 89.7588 31.1099C89.3441 30.9185 88.9886 30.6541 88.6924 30.3169C88.4007 29.9751 88.1774 29.5763 88.0225 29.1206C87.8675 28.6649 87.79 28.1704 87.79 27.6372ZM89.0547 27.48V27.6372C89.0547 28.0063 89.098 28.355 89.1846 28.6831C89.2712 29.0067 89.401 29.2938 89.5742 29.5444C89.752 29.7951 89.973 29.9933 90.2373 30.1392C90.5016 30.2804 90.8092 30.3511 91.1602 30.3511C91.5065 30.3511 91.8096 30.2804 92.0693 30.1392C92.3337 29.9933 92.5524 29.7951 92.7256 29.5444C92.8988 29.2938 93.0286 29.0067 93.1152 28.6831C93.2064 28.355 93.252 28.0063 93.252 27.6372V27.48C93.252 27.1154 93.2064 26.7713 93.1152 26.4478C93.0286 26.1196 92.8965 25.8302 92.7188 25.5796C92.5456 25.3244 92.3268 25.1239 92.0625 24.978C91.8027 24.8322 91.4974 24.7593 91.1465 24.7593C90.8001 24.7593 90.4948 24.8322 90.2305 24.978C89.9707 25.1239 89.752 25.3244 89.5742 25.5796C89.401 25.8302 89.2712 26.1196 89.1846 26.4478C89.098 26.7713 89.0547 27.1154 89.0547 27.48Z" fill="white"/>
<path d="M97.374 25.436V31.2534H96.1094V23.8569H97.3057L97.374 25.436ZM97.0732 27.2749L96.5469 27.2544C96.5514 26.7485 96.6266 26.2814 96.7725 25.853C96.9183 25.4201 97.1234 25.0441 97.3877 24.7251C97.652 24.4061 97.9665 24.16 98.3311 23.9868C98.7002 23.8091 99.1081 23.7202 99.5547 23.7202C99.9193 23.7202 100.247 23.7703 100.539 23.8706C100.831 23.9663 101.079 24.1213 101.284 24.3354C101.494 24.5496 101.653 24.8276 101.763 25.1694C101.872 25.5067 101.927 25.9191 101.927 26.4067V31.2534H100.655V26.3931C100.655 26.0057 100.598 25.6958 100.484 25.4634C100.37 25.2264 100.204 25.0555 99.9854 24.9507C99.7666 24.8413 99.4977 24.7866 99.1787 24.7866C98.8643 24.7866 98.5771 24.8527 98.3174 24.9849C98.0622 25.117 97.8411 25.2993 97.6543 25.5317C97.472 25.7642 97.3285 26.0308 97.2236 26.3315C97.1234 26.6278 97.0732 26.9422 97.0732 27.2749Z" fill="white"/>
<path d="M105.734 31.2534H104.47V23.0776C104.47 22.5444 104.568 22.0955 104.764 21.731C104.964 21.3618 105.251 21.0838 105.625 20.897C106.003 20.7056 106.461 20.6099 106.999 20.6099C107.2 20.6099 107.45 20.6304 107.751 20.6714C108.056 20.7124 108.38 20.7648 108.722 20.8286C109.068 20.8924 109.405 20.9585 109.733 21.0269L109.146 21.9429C108.713 21.8608 108.323 21.7993 107.977 21.7583C107.63 21.7127 107.336 21.6899 107.095 21.6899C106.799 21.6899 106.548 21.7446 106.343 21.854C106.142 21.9588 105.99 22.1138 105.885 22.3188C105.785 22.5239 105.734 22.7769 105.734 23.0776V31.2534ZM108.469 31.2534V21.0269H109.733V31.2534H108.469ZM107.307 23.8569V24.8276H103.301V23.8569H107.307Z" fill="white"/>
<path d="M111.47 27.6372V27.48C111.47 26.9468 111.547 26.4523 111.702 25.9966C111.857 25.5363 112.08 25.1375 112.372 24.8003C112.664 24.4585 113.017 24.1942 113.432 24.0073C113.846 23.8159 114.311 23.7202 114.826 23.7202C115.346 23.7202 115.813 23.8159 116.228 24.0073C116.647 24.1942 117.002 24.4585 117.294 24.8003C117.59 25.1375 117.816 25.5363 117.971 25.9966C118.126 26.4523 118.203 26.9468 118.203 27.48V27.6372C118.203 28.1704 118.126 28.6649 117.971 29.1206C117.816 29.5763 117.59 29.9751 117.294 30.3169C117.002 30.6541 116.649 30.9185 116.234 31.1099C115.824 31.2967 115.359 31.3901 114.84 31.3901C114.32 31.3901 113.853 31.2967 113.438 31.1099C113.024 30.9185 112.668 30.6541 112.372 30.3169C112.08 29.9751 111.857 29.5763 111.702 29.1206C111.547 28.6649 111.47 28.1704 111.47 27.6372ZM112.734 27.48V27.6372C112.734 28.0063 112.778 28.355 112.864 28.6831C112.951 29.0067 113.081 29.2938 113.254 29.5444C113.432 29.7951 113.653 29.9933 113.917 30.1392C114.181 30.2804 114.489 30.3511 114.84 30.3511C115.186 30.3511 115.489 30.2804 115.749 30.1392C116.013 29.9933 116.232 29.7951 116.405 29.5444C116.578 29.2938 116.708 29.0067 116.795 28.6831C116.886 28.355 116.932 28.0063 116.932 27.6372V27.48C116.932 27.1154 116.886 26.7713 116.795 26.4478C116.708 26.1196 116.576 25.8302 116.398 25.5796C116.225 25.3244 116.007 25.1239 115.742 24.978C115.482 24.8322 115.177 24.7593 114.826 24.7593C114.48 24.7593 114.174 24.8322 113.91 24.978C113.65 25.1239 113.432 25.3244 113.254 25.5796C113.081 25.8302 112.951 26.1196 112.864 26.4478C112.778 26.7713 112.734 27.1154 112.734 27.48Z" fill="white"/>
<path d="M121.054 25.019V31.2534H119.789V23.8569H121.02L121.054 25.019ZM123.364 23.8159L123.357 24.9917C123.253 24.9689 123.152 24.9552 123.057 24.9507C122.965 24.9416 122.861 24.937 122.742 24.937C122.451 24.937 122.193 24.9826 121.97 25.0737C121.746 25.1649 121.557 25.2925 121.402 25.4565C121.247 25.6206 121.124 25.8166 121.033 26.0444C120.947 26.2677 120.89 26.5138 120.862 26.7827L120.507 26.9878C120.507 26.5412 120.55 26.1219 120.637 25.73C120.728 25.3381 120.867 24.9917 121.054 24.6909C121.241 24.3856 121.478 24.1486 121.765 23.98C122.056 23.8068 122.403 23.7202 122.804 23.7202C122.895 23.7202 123 23.7316 123.118 23.7544C123.237 23.7726 123.319 23.7931 123.364 23.8159Z" fill="white"/>
<path d="M127.466 31.3901C126.951 31.3901 126.484 31.3035 126.064 31.1304C125.65 30.9526 125.292 30.7043 124.991 30.3853C124.695 30.0662 124.467 29.688 124.308 29.2505C124.148 28.813 124.068 28.3345 124.068 27.8149V27.5278C124.068 26.9263 124.157 26.3908 124.335 25.9214C124.513 25.4474 124.754 25.0464 125.06 24.7183C125.365 24.3901 125.711 24.1418 126.099 23.9731C126.486 23.8045 126.887 23.7202 127.302 23.7202C127.83 23.7202 128.286 23.8114 128.669 23.9937C129.056 24.1759 129.373 24.4312 129.619 24.7593C129.865 25.0828 130.048 25.4657 130.166 25.9077C130.285 26.3452 130.344 26.8237 130.344 27.3433V27.9106H124.82V26.8784H129.079V26.7827C129.061 26.4546 128.993 26.1356 128.874 25.8257C128.76 25.5158 128.578 25.2606 128.327 25.0601C128.076 24.8595 127.735 24.7593 127.302 24.7593C127.015 24.7593 126.75 24.8208 126.509 24.9438C126.267 25.0623 126.06 25.2401 125.887 25.4771C125.714 25.714 125.579 26.0034 125.483 26.3452C125.388 26.687 125.34 27.0812 125.34 27.5278V27.8149C125.34 28.1659 125.388 28.4963 125.483 28.8062C125.584 29.1115 125.727 29.3804 125.914 29.6128C126.105 29.8452 126.336 30.0275 126.604 30.1597C126.878 30.2918 127.188 30.3579 127.534 30.3579C127.981 30.3579 128.359 30.2668 128.669 30.0845C128.979 29.9022 129.25 29.6584 129.482 29.353L130.248 29.9614C130.089 30.203 129.886 30.4331 129.64 30.6519C129.394 30.8706 129.09 31.0483 128.73 31.1851C128.375 31.3218 127.953 31.3901 127.466 31.3901Z" fill="white"/>
<path d="M136.127 29.2915C136.127 29.1092 136.086 28.9406 136.004 28.7856C135.926 28.6261 135.765 28.4826 135.519 28.355C135.277 28.2228 134.912 28.1089 134.425 28.0132C134.015 27.9266 133.643 27.8241 133.311 27.7056C132.982 27.5871 132.702 27.4435 132.47 27.2749C132.242 27.1063 132.066 26.908 131.943 26.6802C131.82 26.4523 131.759 26.1857 131.759 25.8804C131.759 25.5887 131.823 25.313 131.95 25.0532C132.082 24.7935 132.267 24.5633 132.504 24.3628C132.745 24.1623 133.035 24.005 133.372 23.8911C133.709 23.7772 134.085 23.7202 134.5 23.7202C135.092 23.7202 135.598 23.825 136.018 24.0347C136.437 24.2443 136.758 24.5246 136.981 24.8755C137.205 25.2218 137.316 25.6069 137.316 26.0308H136.052C136.052 25.8257 135.99 25.6274 135.867 25.436C135.749 25.2401 135.573 25.0783 135.341 24.9507C135.113 24.8231 134.833 24.7593 134.5 24.7593C134.149 24.7593 133.864 24.814 133.646 24.9233C133.431 25.0282 133.274 25.1626 133.174 25.3267C133.078 25.4907 133.03 25.6639 133.03 25.8462C133.03 25.9829 133.053 26.106 133.099 26.2153C133.149 26.3201 133.235 26.4181 133.358 26.5093C133.481 26.5959 133.655 26.6779 133.878 26.7554C134.101 26.8328 134.386 26.9103 134.732 26.9878C135.339 27.1245 135.838 27.2886 136.229 27.48C136.621 27.6714 136.913 27.9061 137.104 28.1841C137.296 28.4621 137.392 28.7993 137.392 29.1958C137.392 29.5194 137.323 29.8156 137.187 30.0845C137.054 30.3534 136.861 30.5858 136.605 30.7817C136.355 30.9731 136.054 31.1235 135.703 31.2329C135.357 31.3377 134.967 31.3901 134.534 31.3901C133.882 31.3901 133.331 31.2739 132.88 31.0415C132.429 30.8091 132.087 30.5083 131.854 30.1392C131.622 29.77 131.506 29.3804 131.506 28.9702H132.777C132.796 29.3166 132.896 29.5923 133.078 29.7974C133.26 29.9979 133.484 30.1414 133.748 30.228C134.012 30.3101 134.274 30.3511 134.534 30.3511C134.881 30.3511 135.17 30.3055 135.402 30.2144C135.639 30.1232 135.819 29.9979 135.942 29.8384C136.065 29.6789 136.127 29.4966 136.127 29.2915Z" fill="white"/>
<defs>
<linearGradient id="paint0_linear_75_11" x1="8" y1="26" x2="145.392" y2="26" gradientUnits="userSpaceOnUse">
<stop stop-color="#4C4C4C"/>
<stop offset="1" stop-color="#343434"/>
</linearGradient>
</defs>
</svg>
