<svg width="96" height="96" viewBox="0 0 96 96" fill="none" xmlns="http://www.w3.org/2000/svg">
<path d="M92.2099 22.04C89.1079 23.414 85.7719 24.33 82.2519 24.764C85.8299 22.64 88.5839 19.252 89.8759 15.248C86.5279 17.21 82.8179 18.652 78.8719 19.412C75.7199 16.072 71.2239 14 66.2439 14C56.6779 14 48.9219 21.686 48.9219 31.164C48.9219 32.506 49.0799 33.812 49.3739 35.08C34.9819 34.358 22.2159 27.516 13.6759 17.132C12.1759 19.67 11.3319 22.64 11.3319 25.776C11.3319 31.734 14.3819 36.98 19.0339 40.07C16.1939 39.984 13.5219 39.194 11.1819 37.926C11.1819 37.978 11.1819 38.054 11.1819 38.128C11.1819 46.454 17.1539 53.388 25.0699 54.966C23.6239 55.362 22.0939 55.582 20.5179 55.582C19.3999 55.582 18.3099 55.456 17.2539 55.266C19.4579 62.07 25.8519 67.044 33.4279 67.192C27.4999 71.788 20.0339 74.54 11.9159 74.54C10.5139 74.54 9.14189 74.46 7.78589 74.296C15.4599 79.154 24.5659 82 34.3419 82C66.1959 82 83.6239 55.842 83.6239 33.148C83.6239 32.404 83.5999 31.664 83.5659 30.932C86.9659 28.53 89.8959 25.502 92.2099 22.04Z" fill="url(#paint0_linear_21_153)"/>
<defs>
<linearGradient id="paint0_linear_21_153" x1="20.6827" y1="16.6242" x2="81.5959" y2="77.5374" gradientUnits="userSpaceOnUse">
<stop stop-color="#2AA4F4"/>
<stop offset="1" stop-color="#007AD9"/>
</linearGradient>
</defs>
</svg>
