<svg width="167" height="52" viewBox="0 0 167 52" fill="none" xmlns="http://www.w3.org/2000/svg">
<rect x="8" y="8" width="150.867" height="36" rx="8" fill="url(#paint0_linear_74_2)"/>
<path d="M41 18.3647C40.0814 18.7688 39.0936 19.0382 38.0512 19.1659C39.1107 18.5412 39.9263 17.5447 40.3088 16.3671C39.3174 16.9441 38.2188 17.3682 37.0503 17.5918C36.1169 16.6094 34.7855 16 33.3108 16C30.4781 16 28.1814 18.2606 28.1814 21.0482C28.1814 21.4429 28.2282 21.8271 28.3152 22.2C24.0534 21.9876 20.2731 19.9753 17.7442 16.9212C17.3 17.6676 17.0501 18.5412 17.0501 19.4635C17.0501 21.2159 17.9532 22.7588 19.3308 23.6676C18.4898 23.6424 17.6986 23.41 17.0056 23.0371C17.0056 23.0524 17.0056 23.0747 17.0056 23.0965C17.0056 25.5453 18.7741 27.5847 21.1182 28.0488C20.69 28.1653 20.2369 28.23 19.7703 28.23C19.4392 28.23 19.1164 28.1929 18.8037 28.1371C19.4564 30.1382 21.3498 31.6012 23.5932 31.6447C21.8378 32.9965 19.6269 33.8059 17.223 33.8059C16.8078 33.8059 16.4015 33.7824 16 33.7341C18.2725 35.1629 20.969 36 23.8639 36C33.2966 36 38.4575 28.3065 38.4575 21.6318C38.4575 21.4129 38.4504 21.1953 38.4403 20.98C39.4471 20.2735 40.3148 19.3829 41 18.3647Z" fill="white"/>
<path d="M58.0833 26.335C58.065 26.7542 58.0012 27.1758 57.8919 27.5996C57.7825 28.0189 57.6184 28.404 57.3997 28.7549C57.1809 29.1058 56.8961 29.3883 56.5452 29.6025C56.1988 29.8122 55.7796 29.917 55.2874 29.917C54.9729 29.917 54.6972 29.8623 54.4602 29.7529C54.2278 29.639 54.0364 29.4772 53.886 29.2676C53.7402 29.0579 53.6376 28.805 53.5784 28.5088C53.5237 28.2126 53.5146 27.8822 53.551 27.5176L53.8997 23.7305H54.9046L54.5559 27.5176C54.5286 27.8503 54.5354 28.1214 54.5764 28.3311C54.622 28.5407 54.6904 28.7025 54.7815 28.8164C54.8727 28.9258 54.9752 29.001 55.0891 29.042C55.2076 29.083 55.3216 29.1035 55.4309 29.1035C55.7044 29.1035 55.9482 29.0329 56.1624 28.8916C56.3766 28.7458 56.5566 28.5475 56.7024 28.2969C56.8528 28.0417 56.969 27.7477 57.051 27.415C57.1331 27.0778 57.1832 26.7178 57.2014 26.335C57.2333 25.6559 57.2014 25.0316 57.1057 24.4619C57.0146 23.8923 56.8574 23.3864 56.6341 22.9443C56.4153 22.5023 56.1282 22.1286 55.7727 21.8232C55.4173 21.5179 54.9934 21.2855 54.5012 21.126C54.0091 20.9665 53.4462 20.8867 52.8128 20.8867C52.2385 20.8867 51.7076 20.9756 51.22 21.1533C50.7369 21.3265 50.3017 21.5771 49.9143 21.9053C49.5315 22.2334 49.2011 22.6276 48.9231 23.0879C48.6497 23.5482 48.4332 24.0677 48.2737 24.6465C48.1188 25.2207 48.0276 25.8405 48.0003 26.5059C47.9684 27.1895 48.0048 27.8184 48.1096 28.3926C48.2145 28.9622 48.3831 29.4704 48.6155 29.917C48.8525 30.3682 49.151 30.7487 49.511 31.0586C49.871 31.373 50.288 31.61 50.762 31.7695C51.2359 31.9336 51.7646 32.0156 52.3479 32.0156C52.749 32.0156 53.1546 31.9678 53.5647 31.8721C53.9794 31.7764 54.3258 31.6465 54.6038 31.4824L54.8635 32.2617C54.5445 32.4668 54.1458 32.6195 53.6673 32.7197C53.1933 32.82 52.7444 32.8701 52.3206 32.8701C51.6279 32.8701 50.9944 32.7744 50.4202 32.583C49.8505 32.3962 49.3447 32.1204 48.9026 31.7559C48.4651 31.3958 48.1005 30.9561 47.8089 30.4365C47.5172 29.9215 47.303 29.3337 47.1663 28.6729C47.0296 28.012 46.9772 27.2897 47.0091 26.5059C47.041 25.7585 47.1526 25.0544 47.344 24.3936C47.54 23.7327 47.8066 23.1335 48.1438 22.5957C48.4811 22.0579 48.8821 21.5954 49.3469 21.208C49.8163 20.8161 50.3427 20.5153 50.926 20.3057C51.5139 20.096 52.152 19.9912 52.8401 19.9912C53.5419 19.9912 54.1777 20.0869 54.7473 20.2783C55.317 20.4697 55.816 20.7454 56.2444 21.1055C56.6773 21.4655 57.0351 21.9053 57.3176 22.4248C57.6002 22.9443 57.8053 23.5322 57.9329 24.1885C58.065 24.8447 58.1152 25.5602 58.0833 26.335ZM51.0628 26.916C51.0309 27.235 51.0309 27.5199 51.0628 27.7705C51.0947 28.0212 51.1562 28.2331 51.2473 28.4062C51.3385 28.5794 51.457 28.7116 51.6028 28.8027C51.7532 28.8893 51.9286 28.9326 52.1292 28.9326C52.2613 28.9326 52.4003 28.9007 52.5462 28.8369C52.692 28.7686 52.8356 28.6637 52.9768 28.5225C53.1181 28.3812 53.2503 28.1966 53.3733 27.9688C53.4964 27.7409 53.5989 27.4674 53.6809 27.1484L54.1321 27.6406C54.0273 28.0143 53.8906 28.3424 53.7219 28.625C53.5579 28.9076 53.3733 29.1445 53.1682 29.3359C52.9632 29.5273 52.7444 29.6732 52.512 29.7734C52.2841 29.8691 52.0517 29.917 51.8147 29.917C51.482 29.917 51.1904 29.8464 50.9397 29.7051C50.6891 29.5592 50.4863 29.3542 50.3313 29.0898C50.1764 28.8255 50.067 28.5111 50.0032 28.1465C49.9439 27.7773 49.9348 27.3672 49.9758 26.916C50.0169 26.4375 50.1012 25.9954 50.2288 25.5898C50.3564 25.1842 50.5136 24.8219 50.7005 24.5029C50.8919 24.1839 51.1061 23.9128 51.343 23.6895C51.5846 23.4661 51.8398 23.2975 52.1087 23.1836C52.3775 23.0651 52.6533 23.0059 52.9358 23.0059C53.428 23.0059 53.8154 23.0788 54.0979 23.2246C54.3805 23.3659 54.6494 23.5345 54.9046 23.7305L54.3235 24.4072C54.1913 24.2796 54.0182 24.1611 53.804 24.0518C53.5898 23.9424 53.3369 23.8877 53.0452 23.8877C52.7945 23.8877 52.5598 23.9515 52.3411 24.0791C52.1223 24.2067 51.9241 24.3981 51.7464 24.6533C51.5732 24.9085 51.4273 25.2253 51.3089 25.6035C51.1904 25.9772 51.1083 26.4147 51.0628 26.916Z" fill="white"/>
<path d="M61.6448 29.7734H60.3801V21.5977C60.3801 21.0645 60.4759 20.6156 60.6673 20.251C60.8632 19.8818 61.1435 19.6038 61.5081 19.417C61.8727 19.2256 62.3056 19.1299 62.8069 19.1299C62.9527 19.1299 63.0986 19.139 63.2444 19.1572C63.3948 19.1755 63.5406 19.2028 63.6819 19.2393L63.6135 20.2715C63.5178 20.2487 63.4085 20.2327 63.2854 20.2236C63.1669 20.2145 63.0484 20.21 62.93 20.21C62.6611 20.21 62.4286 20.2646 62.2327 20.374C62.0413 20.4788 61.8954 20.6338 61.7952 20.8389C61.6949 21.0439 61.6448 21.2969 61.6448 21.5977V29.7734ZM63.2171 22.377V23.3477H59.2112V22.377H63.2171Z" fill="white"/>
<path d="M68.9866 28.5088V24.7012C68.9866 24.4095 68.9273 24.1566 68.8089 23.9424C68.6949 23.7236 68.5217 23.555 68.2893 23.4365C68.0569 23.318 67.7698 23.2588 67.428 23.2588C67.109 23.2588 66.8287 23.3135 66.5872 23.4229C66.3502 23.5322 66.1633 23.6758 66.0266 23.8535C65.8945 24.0312 65.8284 24.2227 65.8284 24.4277H64.5637C64.5637 24.1634 64.6321 23.9014 64.7688 23.6416C64.9055 23.3818 65.1015 23.1471 65.3567 22.9375C65.6165 22.7233 65.9264 22.5547 66.2864 22.4316C66.651 22.304 67.0566 22.2402 67.5032 22.2402C68.041 22.2402 68.5149 22.3314 68.9251 22.5137C69.3398 22.696 69.6633 22.9717 69.8958 23.3408C70.1328 23.7054 70.2512 24.1634 70.2512 24.7148V28.1602C70.2512 28.4062 70.2717 28.6683 70.3128 28.9463C70.3583 29.2243 70.4244 29.4635 70.511 29.6641V29.7734H69.1917C69.1279 29.6276 69.0777 29.4339 69.0413 29.1924C69.0048 28.9463 68.9866 28.7184 68.9866 28.5088ZM69.2053 25.2891L69.219 26.1777H67.9407C67.5807 26.1777 67.2594 26.2074 66.9768 26.2666C66.6943 26.3213 66.4573 26.4056 66.2659 26.5195C66.0745 26.6335 65.9286 26.777 65.8284 26.9502C65.7281 27.1188 65.678 27.3171 65.678 27.5449C65.678 27.7773 65.7304 27.9893 65.8352 28.1807C65.94 28.3721 66.0973 28.5247 66.3069 28.6387C66.5211 28.748 66.7831 28.8027 67.093 28.8027C67.4804 28.8027 67.8222 28.7207 68.1184 28.5566C68.4147 28.3926 68.6494 28.1921 68.8225 27.9551C69.0003 27.7181 69.096 27.488 69.1096 27.2646L69.6497 27.873C69.6178 28.0645 69.5312 28.2764 69.3899 28.5088C69.2486 28.7412 69.0595 28.9645 68.8225 29.1787C68.5901 29.3883 68.3121 29.5638 67.9885 29.7051C67.6695 29.8418 67.3095 29.9102 66.9085 29.9102C66.4072 29.9102 65.9674 29.8122 65.5891 29.6162C65.2154 29.4202 64.9238 29.1582 64.7141 28.8301C64.5091 28.4974 64.4065 28.126 64.4065 27.7158C64.4065 27.3193 64.484 26.9707 64.6389 26.6699C64.7939 26.3646 65.0172 26.1117 65.3089 25.9111C65.6005 25.7061 65.9514 25.5511 66.3616 25.4463C66.7717 25.3415 67.2298 25.2891 67.7356 25.2891H69.2053Z" fill="white"/>
<path d="M73.6145 19.2734V29.7734H72.343V19.2734H73.6145Z" fill="white"/>
<path d="M78.6048 28.8711C78.9055 28.8711 79.1835 28.8096 79.4387 28.6865C79.6939 28.5635 79.9036 28.3949 80.0676 28.1807C80.2317 27.9619 80.3251 27.7135 80.3479 27.4355H81.551C81.5283 27.873 81.3801 28.2809 81.1067 28.6592C80.8378 29.0329 80.4846 29.3359 80.0471 29.5684C79.6096 29.7962 79.1288 29.9102 78.6048 29.9102C78.0488 29.9102 77.5634 29.8122 77.1487 29.6162C76.7385 29.4202 76.3967 29.1514 76.1233 28.8096C75.8544 28.4678 75.6516 28.0758 75.5149 27.6338C75.3828 27.1872 75.3167 26.7155 75.3167 26.2188V25.9316C75.3167 25.4349 75.3828 24.9655 75.5149 24.5234C75.6516 24.0768 75.8544 23.6826 76.1233 23.3408C76.3967 22.999 76.7385 22.7301 77.1487 22.5342C77.5634 22.3382 78.0488 22.2402 78.6048 22.2402C79.1835 22.2402 79.6894 22.3587 80.1223 22.5957C80.5553 22.8281 80.8948 23.1471 81.1409 23.5527C81.3915 23.9538 81.5283 24.4095 81.551 24.9199H80.3479C80.3251 24.6146 80.2385 24.3389 80.0882 24.0928C79.9423 23.8467 79.7418 23.6507 79.4866 23.5049C79.2359 23.3545 78.942 23.2793 78.6048 23.2793C78.2174 23.2793 77.8915 23.3568 77.6272 23.5117C77.3675 23.6621 77.1601 23.8672 77.0051 24.127C76.8548 24.3822 76.7454 24.667 76.677 24.9814C76.6132 25.2913 76.5813 25.6081 76.5813 25.9316V26.2188C76.5813 26.5423 76.6132 26.8613 76.677 27.1758C76.7408 27.4902 76.8479 27.7751 76.9983 28.0303C77.1533 28.2855 77.3606 28.4906 77.6204 28.6455C77.8847 28.7959 78.2128 28.8711 78.6048 28.8711Z" fill="white"/>
<path d="M82.638 26.1572V26C82.638 25.4668 82.7154 24.9723 82.8704 24.5166C83.0253 24.0563 83.2486 23.6576 83.5403 23.3203C83.832 22.9785 84.1852 22.7142 84.5999 22.5273C85.0146 22.3359 85.4794 22.2402 85.9944 22.2402C86.5139 22.2402 86.9811 22.3359 87.3958 22.5273C87.815 22.7142 88.1705 22.9785 88.4622 23.3203C88.7584 23.6576 88.984 24.0563 89.1389 24.5166C89.2939 24.9723 89.3714 25.4668 89.3714 26V26.1572C89.3714 26.6904 89.2939 27.1849 89.1389 27.6406C88.984 28.0964 88.7584 28.4951 88.4622 28.8369C88.1705 29.1742 87.8173 29.4385 87.4026 29.6299C86.9925 29.8167 86.5276 29.9102 86.0081 29.9102C85.4885 29.9102 85.0214 29.8167 84.6067 29.6299C84.192 29.4385 83.8365 29.1742 83.5403 28.8369C83.2486 28.4951 83.0253 28.0964 82.8704 27.6406C82.7154 27.1849 82.638 26.6904 82.638 26.1572ZM83.9026 26V26.1572C83.9026 26.5264 83.9459 26.875 84.0325 27.2031C84.1191 27.5267 84.249 27.8138 84.4221 28.0645C84.5999 28.3151 84.8209 28.5133 85.0852 28.6592C85.3495 28.8005 85.6572 28.8711 86.0081 28.8711C86.3544 28.8711 86.6575 28.8005 86.9173 28.6592C87.1816 28.5133 87.4003 28.3151 87.5735 28.0645C87.7467 27.8138 87.8766 27.5267 87.9632 27.2031C88.0543 26.875 88.0999 26.5264 88.0999 26.1572V26C88.0999 25.6354 88.0543 25.2913 87.9632 24.9678C87.8766 24.6396 87.7444 24.3503 87.5667 24.0996C87.3935 23.8444 87.1747 23.6439 86.9104 23.498C86.6507 23.3522 86.3453 23.2793 85.9944 23.2793C85.648 23.2793 85.3427 23.3522 85.0784 23.498C84.8186 23.6439 84.5999 23.8444 84.4221 24.0996C84.249 24.3503 84.1191 24.6396 84.0325 24.9678C83.9459 25.2913 83.9026 25.6354 83.9026 26Z" fill="white"/>
<path d="M92.2219 23.9561V29.7734H90.9573V22.377H92.1536L92.2219 23.9561ZM91.9212 25.7949L91.3948 25.7744C91.3994 25.2686 91.4745 24.8014 91.6204 24.373C91.7662 23.9401 91.9713 23.5641 92.2356 23.2451C92.4999 22.9261 92.8144 22.68 93.179 22.5068C93.5481 22.3291 93.956 22.2402 94.4026 22.2402C94.7672 22.2402 95.0953 22.2904 95.387 22.3906C95.6786 22.4863 95.927 22.6413 96.1321 22.8555C96.3417 23.0697 96.5012 23.3477 96.6106 23.6895C96.72 24.0267 96.7747 24.4391 96.7747 24.9268V29.7734H95.5032V24.9131C95.5032 24.5257 95.4462 24.2158 95.3323 23.9834C95.2184 23.7464 95.052 23.5755 94.8333 23.4707C94.6145 23.3613 94.3456 23.3066 94.0266 23.3066C93.7122 23.3066 93.4251 23.3727 93.1653 23.5049C92.9101 23.637 92.6891 23.8193 92.5022 24.0518C92.3199 24.2842 92.1764 24.5508 92.0716 24.8516C91.9713 25.1478 91.9212 25.4622 91.9212 25.7949Z" fill="white"/>
<path d="M104.028 29.7734V30.8125H97.7591V29.7734H104.028Z" fill="white"/>
<path d="M109.319 27.8115C109.319 27.6292 109.278 27.4606 109.196 27.3057C109.118 27.1462 108.956 27.0026 108.71 26.875C108.469 26.7428 108.104 26.6289 107.616 26.5332C107.206 26.4466 106.835 26.3441 106.502 26.2256C106.174 26.1071 105.894 25.9635 105.661 25.7949C105.434 25.6263 105.258 25.4281 105.135 25.2002C105.012 24.9723 104.95 24.7057 104.95 24.4004C104.95 24.1087 105.014 23.833 105.142 23.5732C105.274 23.3135 105.459 23.0833 105.696 22.8828C105.937 22.6823 106.227 22.5251 106.564 22.4111C106.901 22.2972 107.277 22.2402 107.692 22.2402C108.284 22.2402 108.79 22.3451 109.209 22.5547C109.629 22.7643 109.95 23.0446 110.173 23.3955C110.396 23.7419 110.508 24.127 110.508 24.5508H109.243C109.243 24.3457 109.182 24.1475 109.059 23.9561C108.94 23.7601 108.765 23.5983 108.532 23.4707C108.305 23.3431 108.024 23.2793 107.692 23.2793C107.341 23.2793 107.056 23.334 106.837 23.4434C106.623 23.5482 106.466 23.6826 106.365 23.8467C106.27 24.0107 106.222 24.1839 106.222 24.3662C106.222 24.5029 106.245 24.626 106.29 24.7354C106.34 24.8402 106.427 24.9382 106.55 25.0293C106.673 25.1159 106.846 25.1979 107.07 25.2754C107.293 25.3529 107.578 25.4303 107.924 25.5078C108.53 25.6445 109.029 25.8086 109.421 26C109.813 26.1914 110.105 26.4261 110.296 26.7041C110.488 26.9821 110.583 27.3193 110.583 27.7158C110.583 28.0394 110.515 28.3356 110.378 28.6045C110.246 28.8734 110.052 29.1058 109.797 29.3018C109.546 29.4932 109.246 29.6436 108.895 29.7529C108.548 29.8577 108.159 29.9102 107.726 29.9102C107.074 29.9102 106.523 29.7939 106.072 29.5615C105.62 29.3291 105.279 29.0283 105.046 28.6592C104.814 28.29 104.698 27.9004 104.698 27.4902H105.969C105.987 27.8366 106.088 28.1123 106.27 28.3174C106.452 28.5179 106.675 28.6615 106.94 28.748C107.204 28.8301 107.466 28.8711 107.726 28.8711C108.072 28.8711 108.362 28.8255 108.594 28.7344C108.831 28.6432 109.011 28.5179 109.134 28.3584C109.257 28.1989 109.319 28.0166 109.319 27.8115Z" fill="white"/>
<path d="M115.341 22.377V23.3477H111.342V22.377H115.341ZM112.696 20.5791H113.96V27.9414C113.96 28.1921 113.999 28.3812 114.076 28.5088C114.154 28.6364 114.254 28.7207 114.377 28.7617C114.5 28.8027 114.632 28.8232 114.774 28.8232C114.879 28.8232 114.988 28.8141 115.102 28.7959C115.22 28.7731 115.309 28.7549 115.368 28.7412L115.375 29.7734C115.275 29.8053 115.143 29.835 114.979 29.8623C114.819 29.8942 114.626 29.9102 114.398 29.9102C114.088 29.9102 113.803 29.8486 113.543 29.7256C113.283 29.6025 113.076 29.3975 112.921 29.1104C112.771 28.8187 112.696 28.4268 112.696 27.9346V20.5791Z" fill="white"/>
<path d="M119.894 29.9102C119.379 29.9102 118.912 29.8236 118.492 29.6504C118.078 29.4727 117.72 29.2243 117.419 28.9053C117.123 28.5863 116.895 28.208 116.736 27.7705C116.576 27.333 116.496 26.8545 116.496 26.335V26.0479C116.496 25.4463 116.585 24.9108 116.763 24.4414C116.941 23.9674 117.182 23.5664 117.488 23.2383C117.793 22.9102 118.139 22.6618 118.527 22.4932C118.914 22.3245 119.315 22.2402 119.73 22.2402C120.258 22.2402 120.714 22.3314 121.097 22.5137C121.484 22.696 121.801 22.9512 122.047 23.2793C122.293 23.6029 122.476 23.9857 122.594 24.4277C122.713 24.8652 122.772 25.3438 122.772 25.8633V26.4307H117.248V25.3984H121.507V25.3027C121.489 24.9746 121.421 24.6556 121.302 24.3457C121.188 24.0358 121.006 23.7806 120.755 23.5801C120.504 23.3796 120.163 23.2793 119.73 23.2793C119.443 23.2793 119.178 23.3408 118.937 23.4639C118.695 23.5824 118.488 23.7601 118.315 23.9971C118.142 24.234 118.007 24.5234 117.911 24.8652C117.816 25.207 117.768 25.6012 117.768 26.0479V26.335C117.768 26.6859 117.816 27.0163 117.911 27.3262C118.012 27.6315 118.155 27.9004 118.342 28.1328C118.533 28.3652 118.764 28.5475 119.032 28.6797C119.306 28.8118 119.616 28.8779 119.962 28.8779C120.409 28.8779 120.787 28.7868 121.097 28.6045C121.407 28.4222 121.678 28.1784 121.91 27.873L122.676 28.4814C122.517 28.723 122.314 28.9531 122.068 29.1719C121.822 29.3906 121.518 29.5684 121.158 29.7051C120.803 29.8418 120.381 29.9102 119.894 29.9102Z" fill="white"/>
<path d="M126.135 29.7734H124.87V21.5977C124.87 21.0645 124.966 20.6156 125.157 20.251C125.353 19.8818 125.634 19.6038 125.998 19.417C126.363 19.2256 126.796 19.1299 127.297 19.1299C127.443 19.1299 127.589 19.139 127.735 19.1572C127.885 19.1755 128.031 19.2028 128.172 19.2393L128.104 20.2715C128.008 20.2487 127.899 20.2327 127.776 20.2236C127.657 20.2145 127.539 20.21 127.42 20.21C127.151 20.21 126.919 20.2646 126.723 20.374C126.532 20.4788 126.386 20.6338 126.285 20.8389C126.185 21.0439 126.135 21.2969 126.135 21.5977V29.7734ZM127.707 22.377V23.3477H123.701V22.377H127.707Z" fill="white"/>
<path d="M133.477 28.5088V24.7012C133.477 24.4095 133.418 24.1566 133.299 23.9424C133.185 23.7236 133.012 23.555 132.78 23.4365C132.547 23.318 132.26 23.2588 131.918 23.2588C131.599 23.2588 131.319 23.3135 131.077 23.4229C130.84 23.5322 130.654 23.6758 130.517 23.8535C130.385 24.0312 130.319 24.2227 130.319 24.4277H129.054C129.054 24.1634 129.122 23.9014 129.259 23.6416C129.396 23.3818 129.592 23.1471 129.847 22.9375C130.107 22.7233 130.417 22.5547 130.777 22.4316C131.141 22.304 131.547 22.2402 131.993 22.2402C132.531 22.2402 133.005 22.3314 133.415 22.5137C133.83 22.696 134.154 22.9717 134.386 23.3408C134.623 23.7054 134.741 24.1634 134.741 24.7148V28.1602C134.741 28.4062 134.762 28.6683 134.803 28.9463C134.849 29.2243 134.915 29.4635 135.001 29.6641V29.7734H133.682C133.618 29.6276 133.568 29.4339 133.532 29.1924C133.495 28.9463 133.477 28.7184 133.477 28.5088ZM133.696 25.2891L133.709 26.1777H132.431C132.071 26.1777 131.75 26.2074 131.467 26.2666C131.185 26.3213 130.948 26.4056 130.756 26.5195C130.565 26.6335 130.419 26.777 130.319 26.9502C130.218 27.1188 130.168 27.3171 130.168 27.5449C130.168 27.7773 130.221 27.9893 130.325 28.1807C130.43 28.3721 130.588 28.5247 130.797 28.6387C131.011 28.748 131.273 28.8027 131.583 28.8027C131.971 28.8027 132.312 28.7207 132.609 28.5566C132.905 28.3926 133.14 28.1921 133.313 27.9551C133.491 27.7181 133.586 27.488 133.6 27.2646L134.14 27.873C134.108 28.0645 134.021 28.2764 133.88 28.5088C133.739 28.7412 133.55 28.9645 133.313 29.1787C133.08 29.3883 132.802 29.5638 132.479 29.7051C132.16 29.8418 131.8 29.9102 131.399 29.9102C130.897 29.9102 130.458 29.8122 130.079 29.6162C129.706 29.4202 129.414 29.1582 129.204 28.8301C128.999 28.4974 128.897 28.126 128.897 27.7158C128.897 27.3193 128.974 26.9707 129.129 26.6699C129.284 26.3646 129.507 26.1117 129.799 25.9111C130.091 25.7061 130.442 25.5511 130.852 25.4463C131.262 25.3415 131.72 25.2891 132.226 25.2891H133.696Z" fill="white"/>
<path d="M137.995 23.9561V29.7734H136.731V22.377H137.927L137.995 23.9561ZM137.695 25.7949L137.168 25.7744C137.173 25.2686 137.248 24.8014 137.394 24.373C137.54 23.9401 137.745 23.5641 138.009 23.2451C138.273 22.9261 138.588 22.68 138.952 22.5068C139.322 22.3291 139.729 22.2402 140.176 22.2402C140.541 22.2402 140.869 22.2904 141.16 22.3906C141.452 22.4863 141.7 22.6413 141.906 22.8555C142.115 23.0697 142.275 23.3477 142.384 23.6895C142.493 24.0267 142.548 24.4391 142.548 24.9268V29.7734H141.277V24.9131C141.277 24.5257 141.22 24.2158 141.106 23.9834C140.992 23.7464 140.825 23.5755 140.607 23.4707C140.388 23.3613 140.119 23.3066 139.8 23.3066C139.486 23.3066 139.199 23.3727 138.939 23.5049C138.684 23.637 138.463 23.8193 138.276 24.0518C138.093 24.2842 137.95 24.5508 137.845 24.8516C137.745 25.1478 137.695 25.4622 137.695 25.7949Z" fill="white"/>
<path d="M144.134 26.1572V26C144.134 25.4668 144.212 24.9723 144.366 24.5166C144.521 24.0563 144.745 23.6576 145.036 23.3203C145.328 22.9785 145.681 22.7142 146.096 22.5273C146.511 22.3359 146.976 22.2402 147.491 22.2402C148.01 22.2402 148.477 22.3359 148.892 22.5273C149.311 22.7142 149.667 22.9785 149.958 23.3203C150.254 23.6576 150.48 24.0563 150.635 24.5166C150.79 24.9723 150.867 25.4668 150.867 26V26.1572C150.867 26.6904 150.79 27.1849 150.635 27.6406C150.48 28.0964 150.254 28.4951 149.958 28.8369C149.667 29.1742 149.313 29.4385 148.899 29.6299C148.489 29.8167 148.024 29.9102 147.504 29.9102C146.985 29.9102 146.518 29.8167 146.103 29.6299C145.688 29.4385 145.333 29.1742 145.036 28.8369C144.745 28.4951 144.521 28.0964 144.366 27.6406C144.212 27.1849 144.134 26.6904 144.134 26.1572ZM145.399 26V26.1572C145.399 26.5264 145.442 26.875 145.529 27.2031C145.615 27.5267 145.745 27.8138 145.918 28.0645C146.096 28.3151 146.317 28.5133 146.581 28.6592C146.846 28.8005 147.153 28.8711 147.504 28.8711C147.851 28.8711 148.154 28.8005 148.413 28.6592C148.678 28.5133 148.896 28.3151 149.07 28.0645C149.243 27.8138 149.373 27.5267 149.459 27.2031C149.55 26.875 149.596 26.5264 149.596 26.1572V26C149.596 25.6354 149.55 25.2913 149.459 24.9678C149.373 24.6396 149.241 24.3503 149.063 24.0996C148.89 23.8444 148.671 23.6439 148.407 23.498C148.147 23.3522 147.841 23.2793 147.491 23.2793C147.144 23.2793 146.839 23.3522 146.574 23.498C146.315 23.6439 146.096 23.8444 145.918 24.0996C145.745 24.3503 145.615 24.6396 145.529 24.9678C145.442 25.2913 145.399 25.6354 145.399 26Z" fill="white"/>
<defs>
<linearGradient id="paint0_linear_74_2" x1="8" y1="26" x2="158.867" y2="26" gradientUnits="userSpaceOnUse">
<stop stop-color="#2AA4F4"/>
<stop offset="1" stop-color="#007AD9"/>
</linearGradient>
</defs>
</svg>
