<svg width="213" height="237" viewBox="0 0 213 237" fill="none" xmlns="http://www.w3.org/2000/svg">
<path d="M39.0652 217.062L38.3745 215.67C37.207 213.349 37.2316 213.226 36.05 213.076C35.7205 213.026 35.5487 212.984 35.5487 212.823V212.087L35.6469 212.017H42.5361L42.7184 212.073V212.809C42.7184 212.97 42.5957 213.055 42.3538 213.055L41.8524 213.125C40.5903 213.23 40.8006 213.742 41.6351 215.414L49.6006 231.703L49.8741 231.773L56.9422 215.004C57.1876 214.327 57.1525 213.847 56.837 213.566C56.5214 213.286 56.2935 213.128 55.4696 213.093L54.8105 213.058C54.7299 213.058 54.6527 213.03 54.5791 212.977C54.5455 212.955 54.5178 212.925 54.4983 212.889C54.4787 212.854 54.468 212.814 54.4669 212.774V212.073L54.5721 212.003H62.5552L62.6359 212.073V212.774C62.6359 212.963 62.5307 213.055 62.3133 213.055C61.2685 213.104 60.4902 213.335 59.9888 213.735C59.4536 214.19 59.0474 214.777 58.8108 215.439C58.8108 215.439 52.3073 230.314 50.081 235.261C49.2325 236.881 48.3981 236.734 47.6618 235.212C46.1052 232.008 41.7262 222.296 41.7262 222.296L39.0617 217.062H39.0652Z" fill="#8C8C8C"/>
<path d="M51.8234 212.006C51.8234 212.006 47.3358 211.992 45.3304 212.006L45.2322 212.076V212.778C45.2322 212.858 45.2673 212.925 45.3374 212.977C45.4145 213.033 45.4916 213.062 45.5723 213.062L45.8948 213.097C46.7117 213.132 47.0869 213.342 47.199 213.482C47.3954 213.717 47.49 213.973 47.0167 215.004L38.6304 231.727L38.4131 231.675C38.4131 231.675 32.4073 219.008 30.6649 214.776C30.5262 214.47 30.4397 214.143 30.4089 213.808C30.4089 213.374 30.7946 213.142 31.5729 213.107L32.4739 213.072C32.7194 213.072 32.8386 212.977 32.8386 212.785V212.094L32.7579 212.024C32.7579 212.024 25.5637 212.013 24.0771 212.024L24 212.094V212.823C24 212.956 24.1683 213.033 24.5014 213.076C25.4199 213.125 26.0194 213.268 26.3069 213.51C26.5944 213.756 26.9029 214.376 27.3026 215.344C29.4833 220.589 34.1218 229.946 36.3831 235.279C37.0317 236.734 37.8556 236.962 38.8443 235.233C40.5622 232.043 45.2252 222.307 45.2252 222.307L48.8959 215.435C49.3167 214.716 49.7374 214.068 49.9407 213.766C50.3264 213.216 50.5367 213.111 51.5885 213.065C51.7989 213.065 51.9041 212.967 51.9041 212.774V212.08L51.8269 212.01L51.8234 212.006ZM65.4757 233.719C65.4757 234.525 65.8438 234.995 67.0113 235.104L67.7826 235.174C67.8878 235.174 67.993 235.251 67.993 235.395V236.166L67.9579 236.236C67.9579 236.236 65.1882 236.166 64.0593 236.166C63.0425 236.166 60.1922 236.236 60.1922 236.236L60.1221 236.166V235.395C60.1221 235.254 60.2273 235.177 60.3745 235.177L61.1037 235.107C62.3098 234.995 62.6744 234.413 62.6744 233.719V221.578C62.6744 220.771 62.2362 220.554 61.1073 220.449L60.378 220.371C60.2378 220.371 60.1256 220.343 60.1256 220.231V219.39L60.1606 219.32C60.1606 219.32 63.0426 219.39 64.1715 219.39C65.4361 219.376 66.7006 219.352 67.9649 219.32L68 219.39V220.193C68 220.298 67.9229 220.368 67.7791 220.368L67.0078 220.445C65.8859 220.55 65.4792 220.845 65.4792 221.578V233.719H65.4757ZM76.239 233.719C76.239 234.525 76.7159 234.921 77.7712 235.104L78.1743 235.174C78.2795 235.209 78.3917 235.251 78.3917 235.395V236.166L78.3567 236.236C78.3567 236.236 76.0602 236.166 74.9664 236.166C73.9426 236.166 70.9555 236.236 70.9555 236.236L70.8854 236.166V235.395C70.8854 235.254 70.9906 235.177 71.1378 235.177L71.8671 235.107C72.961 234.995 73.4343 234.413 73.4343 233.719V221.578C73.4343 220.771 73.0311 220.554 71.8671 220.449L71.1378 220.371C70.9906 220.371 70.8819 220.343 70.8819 220.231V219.39L70.917 219.32C70.917 219.32 73.9076 219.39 75.0365 219.39C76.0602 219.39 78.3567 219.32 78.3567 219.32L78.3917 219.39V220.193C78.3917 220.298 78.3216 220.333 78.1743 220.368L77.7712 220.445C76.6422 220.662 76.2425 220.845 76.2425 221.578V227.082C77.4486 227.082 78.1358 226.465 79.7485 224.75C81.2035 223.145 82.3324 221.798 82.3324 221.104C82.3324 220.81 82.0064 220.484 81.2806 220.368C81.1299 220.333 81.0563 220.298 81.0563 220.193V219.351L81.0913 219.316C81.0913 219.316 84.0469 219.386 85.1057 219.386C86.0523 219.386 87.658 219.316 87.658 219.316L87.7632 219.351V220.193C87.7632 220.298 87.658 220.368 87.4757 220.368C86.0523 220.48 85.0671 220.554 83.7594 222.051L80.6215 225.662C79.9975 226.314 79.7801 226.714 79.7801 227.008C79.7801 227.226 79.9203 227.408 80.1061 227.625L85.6105 234.262C86.0488 234.771 86.9253 234.991 87.6545 235.139L87.8368 235.174C87.942 235.209 88.0928 235.279 88.0928 235.391V236.155L87.9876 236.19C87.9876 236.19 86.0523 236.155 85.032 236.155C84.1205 236.155 82.8092 236.19 82.8092 236.19L82.7742 236.155V235.717C82.7742 235.244 82.7391 234.841 82.2237 234.262L78.1778 229.228C77.6309 228.498 77.0454 228.316 76.2496 228.316V233.715L76.239 233.719ZM95.897 233.719C95.897 234.525 96.2617 234.995 97.4292 235.104L98.2005 235.174C98.3057 235.174 98.4108 235.251 98.4108 235.395V236.166L98.3758 236.236C98.3758 236.236 95.6061 236.166 94.4771 236.166C93.4604 236.166 90.61 236.236 90.61 236.236L90.5399 236.166V235.395C90.5399 235.254 90.6451 235.177 90.7853 235.177L91.5216 235.107C92.7241 234.995 93.0888 234.413 93.0888 233.719V221.578C93.0888 220.771 92.6505 220.554 91.5181 220.449L90.7818 220.371C90.6416 220.371 90.5364 220.343 90.5364 220.231V219.39L90.5715 219.32C90.5715 219.32 93.4464 219.39 94.5788 219.39C95.8434 219.376 97.108 219.352 98.3723 219.32L98.4073 219.39V220.193C98.4073 220.298 98.3372 220.368 98.19 220.368L97.4186 220.445C96.2967 220.55 95.89 220.845 95.89 221.578V233.719H95.897ZM103.778 221.648C103.778 220.519 103.302 220.48 101.591 220.371C101.373 220.371 101.338 220.266 101.338 220.196V219.355L101.408 219.32C101.959 219.32 104.108 219.39 105.167 219.39C106.184 219.39 107.646 219.32 108.995 219.32C114.17 219.32 115.117 221.869 115.117 223.772C115.117 225.957 114.065 229.382 108.887 229.382C107.975 229.382 107.249 229.312 106.59 229.017V233.901C106.59 234.7 107.029 234.883 108.196 235.065L108.925 235.17C109.076 235.212 109.185 235.247 109.185 235.395V236.159L109.15 236.229C109.15 236.229 106.233 236.159 105.104 236.159C104.087 236.159 101.352 236.229 101.352 236.229L101.31 236.159V235.395C101.31 235.247 101.38 235.212 101.531 235.174L102.302 235.069C103.424 234.918 103.793 234.592 103.793 233.898V221.644L103.778 221.648ZM106.583 227.993C107.313 228.288 108.224 228.323 108.953 228.323C111.148 228.323 112.2 227.005 112.2 224.2C112.2 221.062 110.78 220.371 108.775 220.371C107.022 220.371 106.583 220.698 106.583 221.648V227.993ZM121.396 236.162C120.299 236.162 117.785 236.233 117.785 236.233L117.75 236.162V235.356C117.75 235.286 117.785 235.181 117.967 235.181L118.809 235.104C119.938 234.998 120.267 234.262 120.267 233.536V221.504C120.267 220.662 119.829 220.522 118.805 220.452L117.971 220.371C117.75 220.343 117.75 220.266 117.75 220.231V219.39L117.785 219.32C117.785 219.32 120.625 219.39 121.722 219.39H127.086C128.173 219.39 130.767 219.32 130.767 219.32L130.838 219.39C130.873 220.957 131.132 222.384 131.388 223.765L130.477 223.913C130.077 222.563 129.39 220.631 127.051 220.631H124.134C123.444 220.631 123.082 220.887 123.082 221.507V226.784H125.817C126.834 226.784 127.09 226.346 127.237 225.616L127.454 224.845C127.454 224.74 127.524 224.663 127.672 224.663H128.289C128.359 224.663 128.359 224.698 128.359 224.768C128.289 225.574 128.149 226.598 128.149 227.468C128.149 228.379 128.289 229.15 128.359 229.992L128.289 230.062H127.672C127.489 230.062 127.412 229.992 127.412 229.88L127.23 229.073C127.09 228.348 126.757 227.944 125.807 227.944H123.072V233.526C123.072 234.217 123.472 234.911 124.131 234.911H127.595C129.453 234.911 130.477 233.747 130.915 231.85L131.826 231.955L131.09 236.152L131.02 236.222C131.02 236.222 128.867 236.152 127.773 236.152H121.393L121.396 236.162ZM135.104 235.177L135.946 235.107C137.04 234.995 137.404 234.665 137.404 233.536V221.504C137.404 220.557 137.148 220.557 135.946 220.452L135.146 220.371C134.999 220.371 134.887 220.301 134.887 220.196V219.39L134.922 219.32C134.922 219.32 138.134 219.39 138.789 219.39C139.483 219.39 142.66 219.32 143.606 219.32C149.696 219.32 152.687 223.106 152.687 227.958C152.687 234.339 148.164 236.233 144.118 236.233C141.201 236.233 139.929 236.162 138.796 236.162C137.702 236.162 134.929 236.233 134.929 236.233L134.894 236.162V235.398C134.887 235.293 134.964 235.181 135.104 235.181V235.177ZM143.238 235.177C147.249 235.177 149.514 233.684 149.514 228.579C149.514 224.786 148.673 220.375 142.548 220.375C141.124 220.375 140.213 220.592 140.213 221.504V233.536C140.213 234.553 140.465 235.177 143.238 235.177ZM161.294 233.719C161.294 234.525 161.655 234.995 162.823 235.104L163.594 235.174C163.699 235.174 163.804 235.251 163.804 235.395V236.166L163.769 236.236C163.769 236.236 161 236.166 159.871 236.166C158.854 236.166 156.007 236.236 156.007 236.236L155.937 236.166V235.395C155.937 235.254 156.042 235.177 156.182 235.177L156.919 235.107C158.121 234.995 158.486 234.413 158.486 233.719V221.578C158.486 220.771 158.044 220.554 156.915 220.449L156.179 220.371C156.039 220.371 155.933 220.343 155.933 220.231V219.39L155.968 219.32C155.968 219.32 158.843 219.39 159.972 219.39C161.237 219.376 162.501 219.352 163.766 219.32L163.801 219.39V220.193C163.801 220.298 163.731 220.368 163.583 220.368L162.812 220.445C161.69 220.55 161.287 220.845 161.287 221.578V233.719H161.294ZM172.524 235.104L173.582 235.174C173.73 235.174 173.873 235.289 173.873 235.468V236.162L173.803 236.233C173.803 236.233 169.828 236.162 168.951 236.162C168.004 236.162 165.669 236.233 165.669 236.233L165.599 236.162V235.468C165.599 235.293 165.705 235.177 165.887 235.177C167.493 235.072 168.401 234.778 169.428 232.443L177.516 213.482C177.916 212.536 178.21 212.168 178.757 212.168C179.269 212.168 179.459 212.536 179.739 213.265L187.217 233.028C187.729 234.451 188.458 234.998 189.917 235.142L190.32 235.177C190.502 235.177 190.685 235.282 190.685 235.472V236.162L190.579 236.233C190.579 236.233 187.768 236.162 186.344 236.162C185.068 236.162 181.495 236.233 181.495 236.233L181.46 236.162V235.472C181.46 235.286 181.531 235.177 181.72 235.177L182.737 235.107C184.125 235.002 184.64 234.557 184.272 233.536L182.049 227.373H174.466C173.589 227.373 173.372 227.52 173.19 227.993L171.076 233.28C170.711 234.192 171.188 234.998 172.534 235.104H172.524ZM181.453 225.837L177.923 216.105H177.853L174.207 225.368C174.056 225.732 174.312 225.841 175.111 225.841H181.457L181.453 225.837Z" fill="#8C8C8C"/>
<path d="M33.9329 45.9813C33.9329 45.9813 53.0319 50.1961 63.2306 45.3313C67.2776 43.3865 62.0996 41.9291 62.2619 39.8217C62.4242 37.7143 63.5551 36.5819 67.4399 34.962C71.3246 33.3422 76.0156 33.0172 75.6961 36.2569C75.3716 39.4967 75.3716 41.2791 79.4186 40.6342C83.4656 39.9893 102.889 32.3672 106.125 29.2899C109.36 26.2127 117.941 48.9012 117.941 48.9012L99.0044 76.2919L55.1416 87.1487L21.1529 71.1022L33.9329 45.9813Z" fill="#767676"/>
<path d="M145.236 58.9455C145.236 40.6291 137.654 24.1053 125.493 12.2786C122.445 12.8626 119.894 13.1012 118.869 13.1622C116.805 13.2841 114.498 11.0954 114.741 9.63805C114.984 8.18066 112.434 6.47953 107.945 7.5713C103.452 8.66307 103.168 10.4962 103.168 10.4962L102.965 10.8771C102.696 11.3798 102.803 11.3646 102.803 11.3646C102.803 11.3646 105.572 13.2282 105.516 14.7414C105.242 15.1071 104.847 15.5031 104.187 15.9602C100.901 18.2097 95.4595 19.0425 92.5992 19.337C91.5393 19.4437 90.7735 20.2358 90.5554 21.2413C90.2968 21.6221 90.1142 22.0639 90.099 22.5616C90.0331 24.608 90.3424 27.797 92.3152 30.8743C93.0759 32.0625 94.7343 32.3723 95.8551 31.5141C99.613 28.6247 103.016 26.8728 105.521 31.052C106.449 32.6008 106.748 34.1343 106.449 35.4038C105.455 37.1913 102.854 38.1155 98.3249 36.9679C96.9454 36.6175 95.5609 37.4909 95.2617 38.8366C95.0234 39.1717 94.8408 39.5526 94.8002 39.9944C94.3742 44.8185 95.211 51.9734 96.9099 56.6705C90.7836 57.8689 76.7003 59.8747 70.5994 63.0942C70.0973 63.3582 69.8234 63.8559 69.7727 64.3789C69.2656 65.0035 69.2402 65.9582 69.8589 66.5472C71.1775 67.8116 72.3084 69.6347 71.9839 71.3561C71.2282 72.8033 69.2656 74.0982 65.0918 74.7888C58.5649 75.8654 57.5607 73.5396 58.4634 70.9702C58.8489 70.2034 59.3357 69.4468 59.8986 68.7815C60.1167 68.5226 60.2232 68.223 60.2536 67.9234C60.2587 67.9183 60.2587 67.9183 60.2638 67.9132C61.0955 66.9281 60.4717 65.4047 59.1988 65.232C52.7429 64.3485 41.5147 64.4957 35.5913 65.8008C35.5913 65.8008 35.1501 59.2603 37.5844 52.8011C38.4262 50.8003 39.2478 49.4699 40.7794 47.7383C41.9661 46.55 43.7259 48.4137 44.801 49.8508C45.4704 50.7394 46.9665 50.2672 47.8844 49.6476C49.0711 48.8453 50.5013 47.4692 51.262 45.377C52.1951 43.5134 52.6059 40.9693 51.5105 37.5061C51.1758 36.455 47.8134 34.8402 46.7484 35.1195C44.0656 35.8202 42.6355 36.653 43.4723 33.6976C43.6194 33.3929 43.7309 33.1086 43.9642 32.7582C46.4898 28.9243 48.8176 25.5271 50.1716 22.0893C50.7346 20.8147 51.2062 19.5351 51.4649 18.2351C51.6626 17.2449 48.8987 15.3051 47.2961 15.5336C46.5202 15.7621 46.6115 15.2594 46.6876 14.909C46.8549 14.6094 47.073 14.2793 47.357 13.9137C49.7406 10.8872 51.9872 10.7654 53.0471 11.6235C53.6101 12.0755 54.4164 12.0552 54.9692 11.5931C57.155 9.765 58.2707 7.99278 58.7779 6.54047C59.9646 4.12842 59.498 2.36127 58.7018 2.4019L55.4662 1.2695C55.4662 1.2695 44.9379 9.03377 39.1109 12.0704C37.9343 12.5833 36.2049 12.827 34.5871 12.9489C32.5687 14.9598 30.6466 17.0672 28.7956 19.2355C25.1898 23.9123 22.2078 29.097 19.9561 34.6523C16.0866 43.813 14.2304 54.03 15.0368 64.7852C17.4711 97.3504 44.7554 123.634 77.3444 124.868C105.334 125.924 129.55 109.243 139.728 85.1683C143.263 77.1399 145.236 68.2788 145.236 58.9455Z" fill="#767676"/>
<path d="M212.467 76.7743H212.417C212.26 75.2205 212.016 73.6971 211.798 72.1635C211.626 70.96 211.463 69.7565 211.25 68.5733C210.916 66.7148 210.54 64.8715 210.114 63.0434C209.922 62.2208 209.698 61.4184 209.485 60.6009C208.441 56.5791 207.203 52.6335 205.712 48.8098C205.682 48.7285 205.651 48.6422 205.621 48.5559C204.794 46.4434 203.892 44.3716 202.938 42.3251C202.827 42.0865 202.71 41.8529 202.599 41.6142C199.611 35.348 196.041 29.4118 191.943 23.8869L188.226 25.2732C186.248 22.6022 183.631 19.5554 180.822 16.5187C181.324 14.5383 180.112 11.7911 177.535 9.74469C175.684 8.27715 173.661 7.62208 171.962 7.66271C167.793 3.82374 164.03 0.817558 162.007 0C160.896 0.137106 158.467 0.624593 155.424 1.3152C161.804 5.14402 158.513 8.7951 157.513 9.03377C156.337 9.31306 152.173 9.6025 148.917 2.8843C142.35 4.54989 135.235 6.6014 132.025 8.14512C127.83 10.1611 122.637 11.1767 119.118 11.6591C123.951 19.6823 126.786 29.0614 126.786 39.1209C126.786 68.5683 102.945 92.44 73.5357 92.44C44.1265 92.44 20.2857 68.5683 20.2857 39.1209C20.2857 32.5195 21.5384 26.2228 23.7343 20.3831C23.2931 20.9569 22.8468 21.5257 22.4005 22.0995C21.2442 23.5873 20.093 25.0803 19.0179 26.629C18.1912 27.8224 17.4254 29.0563 16.6444 30.2852C15.691 31.7832 14.7579 33.2914 13.8805 34.8402C13.135 36.1503 12.4351 37.4909 11.7454 38.8366C10.9543 40.3803 10.1986 41.9494 9.48357 43.5388C8.84964 44.9403 8.236 46.3571 7.66293 47.7891C7.01886 49.4039 6.43564 51.0492 5.86764 52.7046C5.36557 54.1671 4.85336 55.6295 4.41214 57.1225C3.905 58.849 3.48914 60.611 3.06314 62.3731C2.70814 63.8457 2.31257 65.3082 2.0235 66.8011C1.62286 68.8476 1.35407 70.9397 1.07514 73.0268C0.907785 74.2759 0.664357 75.5048 0.537571 76.7692C0.192714 80.2578 0 83.7871 0 87.362C0 146.257 47.6816 194 106.5 194C165.318 194 213 146.257 213 87.362C213 83.7871 212.807 80.2578 212.467 76.7743Z" fill="#BEBEBE"/>
<path d="M156.256 1.12732C155.972 1.18825 155.718 1.24411 155.424 1.31012C161.804 5.13894 158.513 8.79002 157.513 9.02869C156.337 9.30798 152.173 9.59742 148.917 2.87923C142.35 4.54481 135.235 6.59633 132.025 8.14004C127.83 10.156 122.637 11.1716 119.118 11.654C123.951 19.6823 126.786 29.0614 126.786 39.1209C126.786 68.5683 102.945 92.44 73.5357 92.44C44.1265 92.44 20.2857 68.5683 20.2857 39.1209C20.2857 32.55 21.5282 26.2787 23.7039 20.4644C8.40335 39.8014 0.187642 65.0137 3.21529 92.2165C8.20557 137.04 44.4105 173.256 89.1912 178.157C148.015 184.601 197.786 138.64 197.786 81.0398C197.786 47.982 181.344 18.814 156.256 1.12732Z" fill="#E1E1E1"/>
<path d="M140.544 5.15925C139.703 5.40807 138.886 5.6569 138.1 5.90064C138.024 5.92603 137.948 5.94634 137.872 5.97173C137.187 6.19009 136.538 6.40336 135.914 6.61664C135.782 6.66234 135.645 6.70804 135.514 6.75374C134.956 6.94671 134.444 7.13967 133.957 7.32248C133.825 7.37326 133.678 7.42404 133.556 7.47482C132.978 7.70333 132.456 7.92676 132.014 8.13496C127.82 10.1509 122.627 11.1665 119.108 11.6489C123.951 19.6823 126.786 29.0614 126.786 39.1209C126.786 68.5683 102.945 92.44 73.5357 92.44C44.1265 92.44 20.2857 68.5683 20.2857 39.1209C20.2857 32.5754 21.5181 26.3345 23.6734 20.5456C23.3489 20.9417 23.0446 21.3124 22.7809 21.6323C10.9796 37.7956 4.78235 58.3107 7.384 80.4102C11.8469 118.317 42.5696 148.821 80.4684 152.889C130.305 158.231 172.429 119.267 172.429 70.4522C172.429 43.9095 159.922 20.3374 140.544 5.15925Z" fill="#EFEFEF"/>
<path d="M122.257 11.1462C119.209 11.7302 116.658 11.9689 115.634 12.0298C113.57 12.1517 111.262 9.96304 111.506 8.50566C111.749 7.04827 109.198 5.34714 104.71 6.43891C100.216 7.53068 99.4913 10.6943 99.4913 10.6943C99.4913 10.6943 105.562 11.6692 100.947 14.8278C97.6605 17.0773 92.2189 17.9101 89.3586 18.2046C88.1414 18.3316 87.2641 19.337 87.2235 20.5608C87.1576 22.6073 87.4669 25.7963 89.4397 28.8735C90.2004 30.0618 91.8588 30.3715 92.9796 29.5134C96.7375 26.624 100.14 24.8721 102.646 29.0513C105.293 33.464 103.133 37.8768 95.0842 35.8355C93.6034 35.4597 92.0616 36.4702 91.9298 37.9936C91.4835 43.0615 92.3964 50.775 94.2728 55.4264C88.4761 56.6096 73.6473 58.6459 67.3638 61.9618C66.4154 62.4594 66.2176 63.8051 66.9936 64.5465C69.6865 67.1261 71.6745 72.0366 61.8613 73.6564C52.6668 75.1748 54.3505 69.9495 57.0333 66.7757C57.865 65.7906 57.2412 64.2672 55.9683 64.0946C49.5124 63.211 38.2842 63.3582 32.3608 64.6633C32.3608 64.6633 31.5088 52.6284 38.1879 45.0927C39.3746 43.9044 41.1293 45.768 42.2095 47.2051C42.8789 48.0938 44.1011 48.2613 45.0191 47.6418C47.2099 46.1641 50.3187 42.8177 48.28 36.3737C47.9453 35.3226 46.789 34.8453 45.724 35.1245C42.5696 35.9523 38.0205 35.4241 41.0989 30.7524C44.3496 25.8166 47.3316 21.6069 48.2394 17.1027C48.4372 16.1125 47.4889 15.3 46.4847 15.427C44.1265 15.7215 42.0523 15.0258 44.4967 11.913C46.8803 8.88143 49.1269 8.76463 50.1869 9.62282C50.7498 10.0748 51.5561 10.0544 52.1089 9.58727C57.2006 5.32175 56.6884 1.20856 55.4662 1.2695L47.4077 2.18862C47.4077 2.18862 41.7024 7.90137 35.8753 10.938C34.6987 11.4458 32.9694 11.6946 31.3516 11.8165C29.3331 13.8274 27.4111 15.9297 25.5549 18.098C16.1424 30.3004 10.8985 45.8899 12.1613 62.7743C14.5956 95.3395 41.8798 121.623 74.4739 122.857C111.526 124.259 142 94.5981 142 57.8131C142 39.4967 134.418 22.9729 122.257 11.1462Z" fill="#F5F5F5"/>
<path d="M151.2 145.612C151.2 145.612 149.501 148.892 150.469 150.355C153.624 150.355 157.752 150.355 157.752 150.355C157.752 150.355 159.329 156.92 156.783 164.091C158.36 162.877 159.578 161.176 159.578 161.176C159.578 161.176 161.398 151.451 160.911 145.982C158.117 146.094 151.2 145.612 151.2 145.612Z" fill="#404040"/>
<path d="M201.092 124.462C198.785 126.407 195.63 131.266 195.63 131.266L202.426 126.767C202.426 126.772 203.395 122.517 201.092 124.462Z" fill="#767676"/>
<path d="M194.535 136.614C194.535 136.614 196.599 135.156 198.054 134.425C197.202 139.163 193.561 141.108 193.561 141.108C193.561 141.108 193.561 141.839 193.683 144.875C200.362 140.016 201.087 129.682 201.087 129.682L194.17 134.303L194.535 136.614Z" fill="#767676"/>
<path d="M165.222 116.55L162.291 117.16C161.697 114.098 159.659 103.815 158.33 99.4476L161.276 97.4113L161.033 96.3196L150.713 100.331L150.895 101.123L154.805 100.651C154.942 101.169 155.11 101.799 155.297 102.54C154.09 105.419 150.302 114.377 148.182 118.546C147.289 114.148 145.946 107.806 144.972 104.617L147.918 102.581L147.675 101.489L137.355 105.501L137.537 106.293L141.447 105.821C142.314 109.106 144.47 117.469 145.469 123.436L142.603 124.939L142.928 125.965L152.32 122.527L151.94 121.745L148.923 122.268C148.831 121.796 148.709 121.176 148.557 120.42C151.189 115.535 154.374 108.253 155.769 104.394C156.793 108.451 158.132 114.098 158.852 118.434L155.992 120.054L156.352 121.07L165.623 117.322L165.222 116.55Z" fill="#404040"/>
<path d="M78.6071 131.226L75.3716 128.956C75.3716 128.956 75.615 133.734 71.4057 138.437C74.2356 136.898 78.6071 131.226 78.6071 131.226Z" fill="#404040"/>
<path d="M89.8657 147.125L84.1654 147.064L83.2526 143.702L85.9759 143.362C86.3208 143.316 86.5693 143.002 86.5236 142.651C86.478 142.301 86.2041 142.006 85.8136 142.103L82.9128 142.474L82.1115 139.538L85.2203 139.234C85.5702 139.203 85.8238 138.894 85.7883 138.543C85.7579 138.193 85.4384 137.893 85.0986 137.974L81.7717 138.299L81.1936 136.172L81.5333 135.298L85.0479 135.024C85.3927 134.994 85.6564 134.694 85.6311 134.339C85.5956 133.993 85.2558 133.719 84.9464 133.755L82.0456 133.983L83.212 130.987L82.0811 129.773L80.3619 134.242L75.2042 136.4C74.9151 136.517 74.7579 136.827 74.8289 137.131L76.5583 144.581C76.5532 144.647 76.5177 144.708 76.5329 144.779C76.5431 144.814 76.5989 144.809 76.6141 144.84L77.5726 148.958C77.6436 149.253 77.9022 149.451 78.1913 149.451C78.2319 149.451 78.2775 149.446 78.3181 149.435L83.6836 148.318L89.8353 148.4C89.8404 148.4 89.8403 148.4 89.8454 148.4C90.1903 148.4 90.4743 148.12 90.4793 147.775C90.4946 147.414 90.2106 147.13 89.8657 147.125ZM76.1881 137.36L79.733 135.877L79.4946 136.497L80.1235 138.772L76.9133 140.493L76.1881 137.36ZM77.6841 143.789L77.2176 141.778L80.4734 140.026L81.2341 142.778L77.6841 143.789ZM77.9681 145.023L81.5689 143.997L82.4766 147.282L78.6731 148.064L77.9681 145.023Z" fill="#404040"/>
<path d="M69.4481 143.885L68.2716 141.763L70.3559 140.615L72.9728 141.996C73.2923 142.164 73.6676 142.042 73.8299 141.732C73.9921 141.417 73.8755 141.036 73.5661 140.874L70.6501 139.33C70.4624 139.229 70.2444 139.224 70.0466 139.335L67.5261 140.722C67.3486 140.64 67.1508 140.615 66.9733 140.717C66.7907 140.818 66.7096 140.996 66.6842 141.189L65.2236 141.991L64.7773 141.925L70.8681 133.541C71.0761 133.257 71.0101 132.861 70.7312 132.658C70.4574 132.45 70.0567 132.511 69.8488 132.795L66.3495 137.604L63.3675 136.289L67.3232 130.266C67.5159 129.971 67.4297 129.58 67.1406 129.388C66.8566 129.195 66.456 129.276 66.2633 129.57L61.8968 136.217C61.7903 136.37 61.77 136.563 61.8156 136.746C61.8714 136.923 61.9982 137.071 62.1656 137.147L65.5837 138.655L63.1291 142.032C62.9973 142.209 62.9719 142.443 63.0531 142.651C63.1443 142.854 63.3269 142.997 63.5501 143.032L65.249 143.276C65.2794 143.281 65.3099 143.281 65.3403 143.281C65.4468 143.281 65.5533 143.256 65.6496 143.2L67.1711 142.362L68.302 144.393L69.1743 149.476C69.2301 149.786 69.4938 150.004 69.7981 150.004C69.8336 150.004 69.8691 149.999 69.9046 149.994C70.2444 149.933 70.4776 149.608 70.4218 149.258L69.5293 144.073C69.509 144.012 69.4836 143.946 69.4481 143.885Z" fill="#404040"/>
<path d="M71.6136 144.241C71.3195 144.038 70.929 144.093 70.7261 144.383C70.5233 144.667 70.5892 145.063 70.8681 145.271L74.6717 148.029C74.7833 148.11 74.9151 148.146 75.0419 148.146C75.2397 148.146 75.4324 148.054 75.5592 147.882C75.7621 147.597 75.6961 147.201 75.4172 146.993L71.6136 144.241Z" fill="#404040"/>
<path d="M65.959 145.261C65.9438 145.256 65.9235 145.256 65.9032 145.256C65.5786 145.256 65.2997 145.505 65.2744 145.835L64.9498 149.486C64.9143 149.832 65.1729 150.141 65.5229 150.172C65.5381 150.177 65.5584 150.177 65.5786 150.177C65.9032 150.177 66.1821 149.928 66.2075 149.598L66.5321 145.947C66.5676 145.602 66.3089 145.292 65.959 145.261Z" fill="#404040"/>
<path d="M100.764 178.842C100.764 178.842 100.769 178.908 100.774 178.949C100.424 178.126 99.6384 177.131 98.0916 175.943C93.578 172.459 87.7814 170.54 81.3254 170.382L81.1327 170.377C81.0668 170.377 81.0009 170.372 80.9349 170.372C79.2005 170.372 77.7653 171.149 77.5472 172.226C77.4407 172.764 77.5472 173.779 79.5099 174.521C81.3711 175.232 82.7404 175.277 83.6025 174.683C84.3936 174.14 84.419 173.292 84.419 173.195C84.419 172.85 84.2009 172.54 83.7851 172.571C83.4504 172.571 83.1664 172.845 83.1511 173.18C83.1511 173.211 83.1309 173.48 82.8671 173.647C82.644 173.795 81.8934 174.074 79.9612 173.327C79.0534 172.987 78.7644 172.622 78.7948 172.474C78.8556 172.165 79.7381 171.662 81.0921 171.642L81.295 171.647C87.3909 171.789 93.081 173.668 97.3207 176.938C99.2073 178.39 100.069 179.675 99.6282 180.371C98.8624 181.594 94.4148 181.803 90.3881 179.761C90.1751 179.655 89.9266 179.675 89.7288 179.812C89.5361 179.949 89.4397 180.183 89.4752 180.421C89.5513 180.929 89.2622 181.437 88.6892 181.808C87.4619 182.61 84.8298 182.793 81.4471 180.675C81.011 180.406 80.7929 180.056 80.8284 179.69C80.869 179.32 81.1581 178.989 81.5891 178.832C82.5324 178.512 83.8155 179.01 85.0428 180.208C85.2913 180.462 85.6919 180.452 85.9404 180.203C86.1839 179.949 86.1788 179.548 85.9303 179.304C83.6431 177.06 81.8326 177.385 81.1631 177.639C80.2706 177.959 79.662 178.695 79.5758 179.558C79.4997 180.305 79.8953 180.99 80.5394 181.503C80.5191 181.498 80.4988 181.493 80.4785 181.488C80.514 181.513 80.5444 181.523 80.5799 181.549C80.6611 181.61 80.6915 181.701 80.7828 181.752C81.4116 182.148 82.0151 182.453 82.5984 182.717C88.5522 185.799 92.5637 183.748 90.6721 181.29C91.2908 181.554 91.9247 181.767 92.5536 181.95C99.5319 184.768 103.234 182.25 100.764 178.842Z" fill="#404040"/>
<path d="M74.0784 95.0907L72.6482 98.1527L67.3841 99.1937L67.2674 97.6043C70.3407 95.7407 72.4403 92.6278 72.2881 89.1545C72.0599 83.8531 67.1863 80.2477 61.2882 80.5016C55.3901 80.7555 50.6991 85.7319 50.9273 91.0333C51.1099 95.309 54.2338 98.2441 58.5192 99.0972L58.9097 100.595L53.5949 101.321L51.2468 98.889L50.6788 99.539L52.7023 104.317L60.8571 103.16L60.0102 98.4117C56.5718 97.914 53.9701 95.1211 53.7926 90.9724C53.5898 86.2549 56.8456 81.8625 60.989 81.6847C65.1324 81.507 68.586 84.7519 68.7888 89.4693C68.9207 92.4653 67.6021 95.2125 65.5634 96.868L65.6547 97.4722H65.6496L66.385 102.24L74.4689 100.697L74.834 95.5172L74.0784 95.0907Z" fill="#404040"/>
<path d="M25.0681 137.426C24.1856 136.141 23.3793 134.476 22.6794 132.739C22.6896 132.678 22.7403 132.643 22.7454 132.577C22.7707 132.307 22.5983 132.104 22.365 131.993C22.081 131.236 21.8629 130.495 21.6398 129.738C21.7869 129.733 21.9339 129.697 22.0556 129.596C22.3143 129.362 22.3346 128.961 22.1013 128.697C21.8629 128.433 21.5282 128.138 21.1377 127.854C20.9754 127.097 20.8588 126.371 20.7929 125.696C21.2594 125.782 21.7209 125.889 22.2027 125.945C22.2281 125.95 22.2534 125.95 22.2788 125.95C22.5983 125.95 22.8671 125.711 22.9076 125.391C22.9533 125.046 22.7048 124.726 22.3549 124.685C21.7463 124.614 21.158 124.487 20.5646 124.365C19.8039 120.653 16.1525 117.591 13.3429 115.56C11.8012 114.448 10.9289 114.737 10.4725 115.169C9.514 116.058 9.79293 118.328 10.4776 120.181C10.2544 120.039 10.1023 119.937 10.0921 119.932C9.80307 119.724 9.4075 119.8 9.20972 120.09C9.01193 120.379 9.08293 120.775 9.36693 120.973C9.44807 121.029 10.224 121.552 11.4361 122.228C12.9169 125.244 15.2396 135.232 15.2599 135.344C15.3461 135.679 15.6555 135.892 16.0206 135.821C16.3604 135.74 16.5734 135.4 16.4974 135.06C16.4061 134.679 14.6716 127.199 13.1806 123.147C14.8948 123.979 17.0603 124.858 19.4641 125.442C19.4996 125.934 19.6315 126.513 19.7228 127.057C18.8099 126.656 17.8464 126.468 17.1313 126.859C16.543 127.184 15.9446 127.986 16.4821 129.946C16.5582 130.23 16.8118 130.413 17.0907 130.413C17.1465 130.413 17.1972 130.408 17.2581 130.388C17.5928 130.296 17.7906 129.946 17.6993 129.611C17.466 128.743 17.4812 128.118 17.7399 127.976C18.1506 127.778 19.1142 128.113 19.9916 128.651C20.3111 129.987 20.7675 131.358 21.2899 132.714C21.2696 132.719 21.2746 132.759 21.2493 132.764C20.5241 132.871 18.9874 132.099 18.4651 131.109C18.3079 130.794 17.9224 130.682 17.6131 130.84C17.2986 130.997 17.182 131.383 17.3443 131.693C18.0188 132.988 19.7583 134.049 21.0769 134.049C21.2189 134.049 21.3609 134.034 21.4927 134.009C21.6043 133.988 21.6651 133.897 21.7666 133.856C22.4461 135.451 23.1967 136.969 24.0183 138.162C24.14 138.34 24.3378 138.437 24.5406 138.437C24.6624 138.437 24.7942 138.401 24.9007 138.325C25.1999 138.112 25.2659 137.715 25.0681 137.426ZM12.3033 121.09C11.2383 119.348 10.8072 116.586 11.3397 116.098C11.431 116.032 11.7961 116.002 12.6076 116.596C16.3148 119.272 18.4042 121.71 19.1244 124.02C16.4314 123.284 14.0428 122.187 12.4047 121.303C12.3692 121.242 12.3337 121.141 12.3033 121.09Z" fill="#404040"/>
<path d="M18.0289 80.9484V79.4301L15.9496 78.7649C15.8584 77.8763 15.3614 74.1795 13.1654 73.4228C11.0253 72.6865 9.96029 73.9611 10.0668 70.2491C9.77264 70.2491 9.25535 70.1729 9.25535 70.1729C8.86485 72.0162 8.77357 74.017 10.2037 75.0529C11.4564 75.9618 14.1746 74.5298 14.6818 78.3587L8.69243 76.4493L7.95707 75.4794L7.87593 77.9118L10.9239 78.8258C10.5334 81.0399 9.99579 85.3155 11.2281 87.2147C11.9584 87.7834 12.1359 88.0221 13.1096 86.6663C14.2 85.148 14.3521 85.6964 14.4333 86.5038C14.5144 87.3163 14.3521 90.9623 12.0852 90.4748C9.81828 89.9873 8.84964 88.3674 8.36279 79.3743C8.11936 87.56 8.28164 92.0947 11.9229 93.0696C15.5642 94.0446 16.1322 88.7736 15.1585 84.0765C14.1848 79.3743 12.8459 84.9093 12.1968 85.1479C11.6541 85.3511 11.6592 81.6441 11.8164 79.095L18.0289 80.9484Z" fill="#404040"/>
<path d="M21.229 47.8957C20.8639 47.1188 22.9634 45.2856 22.9634 45.2856L23.0091 41.1217L20.1741 43.9603C20.1741 43.9603 17.9326 44.006 16.7459 44.1431C18.6223 42.1779 18.4803 39.5221 16.3351 41.5787C14.1848 43.6404 13.5458 46.3825 13.5458 46.3825L19.4388 45.8798L22.3194 42.8126V44.138C22.3194 44.138 21.4065 45.1891 20.5393 46.154C19.5808 49.8609 22.4157 49.6781 22.4157 49.6781L24.8855 47.3422L25.1137 45.7884L22.9229 48.2156C22.9178 48.2156 21.5941 48.6727 21.229 47.8957ZM15.0114 44.2345C15.0114 44.2345 15.8786 42.4521 16.6089 42.315C17.3392 42.1779 17.4305 42.9091 16.1069 44.1431C15.6961 44.1888 15.0114 44.2345 15.0114 44.2345Z" fill="#404040"/>
<path d="M27.4871 36.3179L23.785 45.834C23.785 45.834 28.3087 42.904 29.3129 39.3342C30.3221 35.7694 27.4871 36.3179 27.4871 36.3179ZM28.1718 39.5678C27.5328 41.4416 25.6158 43.1833 25.6158 43.1833L27.7154 38.0596C27.7154 38.0596 28.8159 37.694 28.1718 39.5678Z" fill="#404040"/>
<path d="M42.2957 7.05334C42.0269 6.82483 41.6263 6.8553 41.4031 7.12444C41.1952 7.3631 38.1169 10.9837 35.5811 14.2895C35.1906 14.3707 34.4604 14.5231 33.6895 14.7008C34.2474 13.9391 34.932 13.1977 35.2515 12.8778C35.5 12.629 35.5 12.2278 35.2566 11.979C35.0081 11.7302 34.6074 11.7302 34.3589 11.979C34.2727 12.0603 32.376 13.9696 31.7928 15.4473C31.7015 15.6707 31.7471 15.9297 31.9094 16.1074C32.0261 16.2445 32.2036 16.3156 32.3811 16.3156C32.4369 16.3156 32.4926 16.3105 32.5484 16.2953C33.086 16.148 33.7859 15.9856 34.4299 15.8434C33.4106 17.2347 32.5941 18.4687 32.3304 19.1644C32.2441 19.398 32.2999 19.6569 32.4724 19.8347C32.6448 20.0073 32.9136 20.0632 33.1418 19.987C33.4714 19.8651 33.867 19.7788 34.2372 19.728L33.2483 21.4546C33.0759 21.7592 33.1773 22.1452 33.4816 22.3178C33.583 22.3737 33.6895 22.4041 33.8011 22.4041C34.0191 22.4041 34.2321 22.2924 34.3488 22.0842L35.9463 19.2913C36.0579 19.0933 36.0579 18.8495 35.9412 18.6515C35.8246 18.4535 35.5964 18.296 35.3783 18.3417C35.3377 18.3417 34.8052 18.3621 34.151 18.4535C34.6936 17.5953 35.5254 16.4629 36.4484 15.2543C36.4839 15.2137 36.5092 15.1883 36.5346 15.1426C38.5733 12.4817 41.0836 9.45524 42.3718 7.94707C42.5899 7.68302 42.5645 7.28185 42.2957 7.05334Z" fill="#404040"/>
<path d="M140.595 53.0956L135.083 54.5885L135.417 55.2588L136.244 55.2182C137.136 55.401 137.725 55.7209 137.699 56.3303L136.589 69.8835L131.076 63.8559L132.461 57.549C132.618 56.7568 133.11 56.2541 133.825 55.9444L134.712 55.5635L134.347 54.7713L128.5 56.2643L128.895 56.9955L130.108 56.9193C130.863 57.3357 131.284 57.8537 131.091 58.5494L130.229 62.9266L126.674 59.0419C126.263 58.5595 126.365 58.1431 126.755 57.7674L127.947 57.1834L127.521 56.4522L120.903 58.0923L121.451 58.8236L122.992 58.7423C123.256 58.849 123.52 59.0013 123.778 59.2552L129.646 65.8922L128.403 72.199L118.869 60.8142C118.758 60.6466 118.783 60.4536 118.859 60.2454L120.659 59.2451L120.091 58.4681L112.469 60.5298L112.834 61.0782L114.269 61.0985C115.061 61.2052 115.745 61.4591 116.242 61.9923L127.988 76.0126L128.444 75.8603L130.437 66.791L136.518 73.6666L137.005 73.3924L139.043 56.0358C139.109 55.1471 139.672 54.5479 140.479 54.0858L140.9 53.8725L140.595 53.0956Z" fill="#404040"/>
<path d="M190.889 40.8373C188.581 38.1003 187.186 40.8982 187.673 44.4833C188.16 48.0684 193.074 52.5065 193.074 52.5065C191.984 60.1032 183.545 53.1768 180.69 48.1293C183.18 56.2744 191.249 61.9872 193.678 57.4881C196.107 52.989 193.191 43.5693 190.889 40.8373ZM189.671 45.4532C188.642 43.2036 190.28 43.0818 191.188 44.661C192.096 46.2403 192.4 46.7278 192.887 48.7945C192.892 48.7996 190.706 47.7028 189.671 45.4532Z" fill="#404040"/>
<path d="M175.471 15.7367C174.077 14.8227 171.769 11.786 171.769 11.786L169.538 13.7005C167.895 12.1771 166.13 10.7857 165.156 10.2626C164.066 9.77516 161.211 10.872 161.454 10.872C161.454 10.872 157.934 12.0247 159.572 16.402C161.211 20.7792 164.73 23.9377 164.73 23.9377C164.73 23.9377 168.311 27.4618 170.922 22.2366C173.291 20.962 174.259 19.7433 172.926 17.4937C172.429 16.6559 171.47 15.5692 170.375 14.4875C170.618 14.2133 170.948 13.8426 171.287 13.4212C172.86 16.0414 174.376 16.5898 175.471 15.7367ZM167.215 22.785C165.455 21.2667 161.936 15.5539 160.901 14.1575C159.872 12.761 161.023 11.9079 161.023 11.9079C161.023 11.9079 168.549 20.6573 169.822 22.7241C169.523 23.2116 168.975 24.3033 167.215 22.785ZM171.465 18.5906C172.317 20.048 172.256 20.5964 171.1 21.1448C169.888 18.5296 162.484 11.0548 162.484 11.0548C162.484 11.0548 163.214 10.2626 164.548 11.2986C165.881 12.3345 170.613 17.1332 171.465 18.5906Z" fill="#404040"/>
<path d="M116.191 18.2453C115.918 19.0222 114.32 19.4335 114.32 19.4335L112.322 20.0023L111.485 18.6109L111.896 17.7425L109.244 17.514L108.285 18.4738L109.7 18.7023L110.395 20.5507L106.612 21.6272C105.552 20.9975 104.081 21.6323 104.081 21.6323C104.081 21.6323 103.99 22.1807 104.355 22.135C104.72 22.0893 105.45 22.7748 105.45 22.7748C105.45 22.7748 106.18 24.1002 106.956 25.7963C107.732 27.4872 109.609 26.756 109.609 26.756C109.609 26.756 108.336 24.019 107.387 22.4041L116.146 19.7534C117.469 26.299 114.777 29.2696 112.763 32.8394C120.578 27.3501 118.839 20.3476 118.839 20.3476C118.839 20.3476 118.884 19.8448 119.113 19.3878C118.707 18.9308 117.606 18.6109 116.191 18.2453Z" fill="#404040"/>
<path d="M127.07 28.7669L125.29 25.1971L125.563 24.1002L124.864 24.1408C125.492 23.2369 126.03 22.2264 126.294 20.9925C125.655 20.444 123.55 20.3983 123.55 20.3983L124.007 20.9925C124.007 20.9925 123.596 25.3392 119.985 28.2692C121.004 27.7208 122.495 26.7915 123.814 25.4357L125.746 28.9548C125.746 28.9548 125.563 28.9091 125.472 29.686C126.202 30.4629 127.252 30.3715 127.252 30.3715L127.07 28.7669Z" fill="#404040"/>
<path d="M200.788 90.9623C200.839 90.9673 200.895 90.9673 200.94 90.9673C202.304 90.9673 203.481 89.251 203.709 86.8796C203.948 84.4167 203.045 82.4515 201.615 82.3144C201.569 82.3094 201.513 82.35 201.463 82.3551L201.376 81.8016L200.463 81.3445L200.707 82.5582C200.301 82.7562 199.911 83.066 199.591 83.5636C199.114 84.3101 198.8 85.3206 198.699 86.4022C198.455 88.86 199.358 90.8252 200.788 90.9623ZM200.656 84.2441C200.92 83.8277 201.224 83.5788 201.457 83.5788C201.468 83.5788 201.483 83.5788 201.493 83.5788C202 83.6296 202.624 84.8941 202.446 86.7577C202.269 88.5858 201.447 89.6978 200.935 89.6978C200.925 89.6978 200.915 89.6978 200.9 89.6978C200.392 89.6471 199.769 88.3877 199.946 86.519C200.037 85.6507 200.296 84.8179 200.656 84.2441Z" fill="#404040"/>
<path d="M206.265 94.6184C206.265 94.6184 206.083 82.9949 205.17 78.8309C204.257 78.7852 203.019 78.6024 203.019 78.6024V79.5622L204.389 80.7047C204.389 80.7047 204.891 84.8941 205.241 89.7029C204.272 90.7185 201.295 93.8212 200.23 94.6591C198.952 95.6645 196.847 95.3903 196.847 95.3903C197.578 96.7156 199.089 96.8528 199.089 96.8528C199.089 96.8528 199.865 95.9387 200.367 95.6645C200.717 95.4512 201.113 95.1262 201.518 94.7708C201.554 95.9539 201.736 101.672 201.736 102.616C202.147 101.428 202.649 99.8234 202.558 98.2238C202.492 97.0762 202.472 94.9841 202.467 93.8771C203.633 92.7193 204.744 91.4294 205.312 90.7439C205.565 94.5727 205.697 98.625 205.393 101.194C205.946 98.7824 206.265 94.6184 206.265 94.6184Z" fill="#404040"/>
<path d="M35.9311 163.293C35.9311 163.293 33.6844 161.958 32.9592 160.617C32.2289 159.282 33.9887 158.794 36.0528 161.044C38.1169 163.293 39.7549 164.934 38.056 164.934C38.6037 165.36 39.0246 165.903 39.0246 165.903C39.0246 165.903 41.6364 166.391 42.9702 167.787C44.304 169.184 46.9766 171.738 46.9766 171.738C46.9766 171.738 47.8895 173.135 45.582 172.408C45.9471 172.896 46.3123 173.378 46.3123 173.378C46.3123 173.378 50.9273 174.531 47.5852 171.007C44.2482 167.483 41.5756 166.264 39.8158 165.599C39.8158 165.599 40.3026 163.898 39.0246 162.623C37.7517 161.348 36.1136 159.647 33.0759 158.429C30.0431 157.215 31.9855 160.069 32.5281 160.8C33.0759 161.531 35.8651 163.659 35.8651 163.659L35.9311 163.293Z" fill="#404040"/>
<path d="M143.846 182.981C143.288 182.981 142.69 182.828 142.451 182.321C142.025 181.417 143.126 180.543 144.135 179.883C147.163 177.898 149.744 177.527 150.728 178.197C150.987 178.365 151.129 178.639 151.118 178.939C151.118 178.964 151.118 178.989 151.113 179.015L152.234 178.598L154.501 175.806C154.719 175.531 155.115 175.486 155.394 175.714C155.667 175.932 155.708 176.334 155.485 176.608L153.106 179.533C153.035 179.619 152.944 179.685 152.838 179.726L148.542 181.325C148.223 181.432 147.888 181.295 147.746 181C147.609 180.701 147.721 180.345 148.01 180.183C148.593 179.853 149.171 179.446 149.536 179.152C148.877 179.121 147.741 179.36 146.28 180.102C146.848 180.183 146.985 180.427 147.051 180.559C147.132 180.706 147.269 181.097 146.863 181.534C146.23 182.229 145.712 182.549 144.764 182.854C144.536 182.92 144.201 182.981 143.846 182.981ZM143.831 181.711C143.937 181.721 144.206 181.696 144.378 181.64C144.632 181.554 144.84 181.483 145.012 181.391C144.845 181.351 144.693 181.244 144.607 181.087C144.216 181.366 143.978 181.569 143.831 181.711Z" fill="#767676"/>
<path d="M155.444 178.532C155.318 178.532 155.186 178.492 155.074 178.416C154.79 178.213 154.729 177.816 154.932 177.527C155.363 176.928 156.332 175.511 156.971 174.389C155.936 174.668 154.75 175.13 154.364 175.76C154.242 175.968 154.222 176.166 154.308 176.41C154.42 176.74 154.248 177.106 153.923 177.222C153.588 177.344 153.228 177.161 153.111 176.836C152.898 176.232 152.959 175.633 153.279 175.1C154.313 173.404 157.858 172.896 158.016 172.876C158.193 172.84 158.452 172.931 158.589 173.104C158.726 173.272 158.771 173.505 158.695 173.713C158.208 175.11 156.053 178.141 155.957 178.268C155.84 178.441 155.642 178.532 155.444 178.532Z" fill="#767676"/>
<path d="M4.4375 103.444C5.14243 103.901 6.44071 104.739 7.51079 103.972C8.69243 103.124 8.33743 101.443 7.48543 98.0207C7.22171 96.9645 7.32821 96.411 7.50064 96.2535C7.82014 95.959 8.97643 96.0453 10.0161 96.4313C10.6855 96.6902 12.5518 97.9953 13.1299 99.3714C13.3886 99.9757 13.2821 100.346 13.1857 100.57C11.8671 103.591 12.5924 107.73 14.8745 110.208C17.2074 112.742 24.8754 114.651 30.8951 114.153C31.0422 114.138 31.2552 114.123 31.4175 114.108C31.2958 116.428 31.1183 118.648 30.8951 120.537C30.3069 125.483 32.8375 131.5 36.4281 133.689C38.2081 134.775 40.044 134.785 41.606 133.734C43.7411 132.282 45.4806 131.774 46.718 132.185C47.996 132.612 49.061 134.059 49.8927 136.497C51.0591 139.924 50.4607 141.047 50.1514 141.372C49.6746 141.864 48.5944 141.915 47.2505 141.514L46.5101 141.285C43.8679 140.452 39.8817 139.208 37.6148 141.143C36.3774 142.189 35.9159 143.926 36.2404 146.307C36.5143 148.298 37.4981 150.568 38.8116 152.894C33.9126 151.385 30.6365 148.74 30.4489 147.79C29.8555 144.82 27.8269 143.154 23.785 140.747C22.0252 139.696 20.6965 139.63 19.8445 140.539C19.1193 141.301 19.1142 142.458 19.4084 143.626C17.0349 141.615 14.1696 138.69 12.2982 136.614L12.1562 136.74C13.5914 139.483 15.1636 142.138 16.8219 144.733C18.7592 146.45 20.7117 147.927 22.0759 148.293C22.5831 148.425 23.1257 148.237 23.4351 147.805C23.7444 147.379 23.7546 146.8 23.4604 146.363C22.3904 144.764 21.8781 143.311 21.7716 142.57C21.9441 142.641 22.1824 142.753 22.4867 142.931C26.3664 145.236 27.5886 146.434 27.9588 148.288C28.4507 150.746 33.7098 154.63 40.7439 156.001C43.7411 160.404 47.5801 164.705 50.3948 167.493C49.3805 167.737 48.6654 168.265 48.3307 169.072C47.8337 170.235 48.0416 172.17 51.8351 174.744C56.6174 177.984 60.1624 179.223 62.3684 178.487C62.8401 178.329 63.2509 178.08 63.5856 177.75C64.2094 178.187 64.8737 178.664 65.5685 179.157C69.0678 181.655 73.3785 184.738 77.0198 186.276C77.9986 188.688 83.0852 190.776 88.9681 192.431C94.6836 193.386 100.516 194 106.5 194C107.215 194 107.91 193.909 108.625 193.893C88.8464 190.933 79.804 186.931 79.3831 185.494C79.449 184.921 79.1143 184.372 78.5767 184.169C75.1078 182.854 70.6399 179.655 67.0443 177.085C65.9286 176.288 64.8839 175.541 63.9507 174.902C63.6211 174.678 63.2103 174.612 62.8299 174.754C62.4546 174.876 62.1554 175.176 62.0337 175.552C61.9272 175.887 61.7649 176.004 61.557 176.075C60.563 176.435 57.8143 175.724 53.2652 172.632C51.1352 171.19 50.6737 170.22 50.6331 170.098C50.7396 169.991 51.5359 169.666 53.4275 170.067C53.9904 170.169 54.5686 169.905 54.8221 169.382C55.0757 168.859 54.9439 168.229 54.5026 167.853C52.1799 165.868 47.7678 161.267 44.1823 156.433C45.2219 156.499 46.2768 156.535 47.3621 156.469C57.0789 155.859 67.4348 156.885 68.6773 157.362C69.1388 157.54 69.438 157.794 69.5699 158.114C69.7575 158.596 69.6307 159.353 69.2047 160.252C68.5404 161.643 68.6773 163.217 69.5851 164.563C71.0507 166.741 74.2508 167.94 78.4753 167.94C78.9368 167.94 79.4084 167.924 79.8902 167.899C83.7496 167.666 90.3526 166.817 91.2046 163.745C91.3973 163.05 91.4379 161.689 89.5158 160.358C88.0806 159.368 87.2691 158.383 87.3351 157.728C87.4061 157.083 88.4051 156.311 90.0026 155.651C93.7403 154.117 102.666 151.487 111.597 150.187C114.214 154.904 118.514 157.779 121.243 159.556C122.008 160.059 122.881 160.831 122.683 161.689C122.374 162.999 119.894 164.644 116.689 165.01C115.857 165.106 114.959 165.172 114.036 165.243C109.041 165.634 102.189 166.178 102.58 171.829C102.722 173.896 103.731 175.501 105.481 176.45C108.432 178.055 113.28 177.527 117.566 175.161C123.362 171.951 125.127 172.759 126.907 175.785C128.9 179.172 127.506 181.985 126.497 182.996C126.208 183.285 126.076 183.697 126.142 184.098C126.213 184.499 126.461 184.844 126.831 185.032C127.105 185.174 129.656 186.327 134.525 184.474C136.168 183.854 136.802 183.941 136.883 183.895C136.888 184.052 136.807 184.575 136.279 185.408C135.235 187.079 131 188.49 127.947 187.008C127.628 186.86 127.267 186.845 126.938 186.967C126.613 187.094 126.355 187.353 126.218 187.683C125.508 189.46 123.621 191.481 122.384 192.685C123.723 192.482 125.077 192.324 126.4 192.07C126.999 191.339 127.577 190.552 128.028 189.755C131.984 190.963 136.822 189.308 138.43 186.764C139.576 184.946 139.738 183.367 138.886 182.326C137.512 180.635 134.586 181.732 133.627 182.102C131.857 182.773 130.513 182.96 129.575 182.971C130.579 180.96 131.101 177.903 129.103 174.5C125.929 169.103 121.709 169.971 116.344 172.942C112.834 174.876 108.863 175.399 106.698 174.226C105.719 173.693 105.197 172.85 105.11 171.652C104.913 168.737 108.772 168.204 114.239 167.777C115.192 167.701 116.12 167.63 116.983 167.528C120.522 167.127 124.468 165.187 125.153 162.273C125.396 161.232 125.391 159.221 122.627 157.423C119.574 155.438 116.384 153.117 114.285 149.847C116.075 149.644 117.845 149.486 119.549 149.43C132.227 149.024 142.375 146.907 147.391 143.631C149.075 142.529 150.17 141.544 150.033 140.28C149.901 138.985 148.623 138.487 147.487 138.056C146.727 137.756 145.768 137.39 145.464 136.903C145.296 136.629 145.296 136.162 145.469 135.588C146.047 133.653 148.542 130.804 151.707 129.382C155.526 127.671 161.611 126.752 163.264 128.138C163.427 128.27 163.797 128.585 163.554 129.626C162.767 132.922 162.539 135.232 163.832 136.542C165.029 137.756 166.967 137.502 168.711 137.116C171.277 136.527 179.376 131.896 187.445 125.549C187.805 127.377 187.83 129.443 187.262 131.901C185.913 137.715 184.164 139.787 182.931 140.503C181.953 141.067 181.085 140.935 180.284 140.696C179.321 140.397 178.032 140.656 176.663 141.402C174.264 142.717 172.363 145.134 171.582 147.882C170.841 150.492 171.5 152.858 173.27 153.919C173.95 154.315 175.37 154.854 177.525 154.067C171.617 163.461 164.816 172.622 153.725 181.427C152.031 182.773 150.49 183.971 149.065 185.063C152.848 183.407 156.484 181.498 160.024 179.431C170.496 170.022 176.805 160.292 182.789 150.339C183.119 149.796 182.992 149.085 182.49 148.689C181.983 148.293 181.283 148.328 180.817 148.78C177.683 151.848 175.502 152.305 174.574 151.741C173.833 151.299 173.61 150.025 174.021 148.577C174.914 145.459 177.201 144.002 177.885 143.626C178.859 143.093 179.437 143.098 179.564 143.123C180.675 143.454 182.364 143.768 184.21 142.697C186.664 141.265 188.475 137.924 189.737 132.47C190.544 129.002 190.331 126.199 189.641 123.781C193.566 120.531 197.37 116.921 200.397 113.219C200.382 115.55 200.894 116.957 201.939 117.424C203.537 118.135 205.063 116.51 206.23 115.002C210.834 109.02 209.572 104.201 208.77 102.337C209.516 101.347 211.002 99.3359 212.513 97.1371C212.665 95.4766 212.691 93.7806 212.767 92.0997C210.332 96.1114 206.331 101.357 206.28 101.423C205.961 101.844 205.941 102.423 206.214 102.875C206.321 103.053 208.897 107.379 204.216 113.453C203.679 114.154 203.283 114.555 203.03 114.778C202.852 113.676 203.004 111.208 203.435 108.867C203.542 108.278 203.096 107.887 202.533 107.659C201.985 107.43 201.204 107.826 200.874 108.329C197.897 112.818 193.424 117.287 188.718 121.247C187.983 119.633 187.085 118.18 186.218 116.804C184.742 114.463 183.469 112.442 183.302 110.05C183.139 107.654 183.702 105.892 184.991 104.795C186.309 103.678 188.13 103.474 189.352 103.759C190.64 104.058 191.832 103.754 192.76 102.901C194.327 101.464 194.961 98.5844 194.459 95.2024C193.977 91.9728 192.638 88.1795 190.305 87.2198C189.261 86.7881 188.12 86.971 187.105 87.7276C186.228 88.3877 185.533 89.5049 184.798 90.6779C183.885 92.1454 182.85 93.8009 181.806 93.8618C181.785 93.8618 181.76 93.8618 181.74 93.8618C180.964 93.8618 179.873 93.0341 178.661 91.5158C176.699 89.0631 175.233 85.1733 174.036 81.05C182.612 76.1548 187.43 71.4373 190.265 68.6394C190.848 68.0605 191.355 67.5628 191.801 67.1515C192.39 66.6132 193.49 65.75 194.292 66.0699C195.073 66.3847 195.955 67.9284 196.153 70.6807C196.386 73.9611 197.329 76.0126 198.967 76.7845C200.332 77.4192 201.894 77.0993 203.658 75.84C205.068 74.8295 205.92 73.3924 206.118 71.6811C206.412 69.1319 205.195 66.664 204.358 65.7043C203.664 64.9172 201.604 62.1344 204.024 59.4482C205.241 58.0974 207.051 57.5135 208.578 57.2646C208.334 56.4522 208.116 55.6295 207.858 54.8221C205.966 55.1725 203.75 55.9647 202.142 57.7521C199.104 61.129 200.408 65.0492 202.451 67.38C202.953 67.9488 203.795 69.7057 203.603 71.3916C203.486 72.3971 203.024 73.1791 202.188 73.7783C201.27 74.4334 200.489 74.6873 200.053 74.4943C199.515 74.2404 198.871 73.0572 198.683 70.5081C198.43 66.9636 197.167 64.4906 195.23 63.7188C194.139 63.2871 192.359 63.211 190.087 65.2879C189.621 65.7144 189.093 66.2375 188.485 66.8417C185.802 69.4925 181.298 73.9256 173.346 78.5516C172.834 76.6067 172.373 74.6669 171.942 72.849C170.77 67.8726 169.837 63.9422 168.503 62.0837C167.499 60.6872 166.358 59.9814 165.116 59.9814H165.11C162.904 59.9814 161.292 62.236 160.227 63.7289C160.024 64.0082 159.846 64.2621 159.684 64.4652C159.182 65.0898 157.483 66.1613 155.738 65.9176C153.953 65.6789 152.467 64.1961 151.321 61.5149C150.099 58.656 149.932 56.4166 150.834 55.0455C151.92 53.3952 154.197 53.3444 155.536 53.4663C156.535 53.5475 157.655 53.6491 158.457 52.7858C159.263 51.9073 159.37 50.4957 158.852 47.3879C158.462 45.0571 156.631 42.2947 154.268 39.3901C159.233 37.4807 164.299 35.1144 167.834 32.4535C169.299 31.509 170.785 31.2907 172.018 31.8492C173.108 32.3367 173.874 33.3625 174.072 34.5914C174.391 36.5819 175.852 37.9276 178.068 38.2881C180.771 38.735 184.559 37.562 185.832 35.1195C186.613 33.6215 186.274 31.9406 184.889 30.5036C183.119 28.6704 183.144 27.99 183.129 27.99C183.292 27.7868 184.113 27.6142 184.428 27.5482C184.641 27.5025 184.828 27.4618 184.97 27.4212L185.685 27.2283C188.378 26.5021 190.995 25.7404 192.689 24.9787C192.43 24.6232 192.202 24.2373 191.938 23.8869L188.221 25.2732C187.957 24.9178 187.602 24.5115 187.318 24.1408C186.375 24.415 185.528 24.6435 185.021 24.7807L183.895 25.0701C182.952 25.2732 181.197 25.6388 180.71 27.2181C180.294 28.5739 181.04 30.1786 183.058 32.2707C183.961 33.2101 183.682 33.7433 183.581 33.9414C182.942 35.155 180.37 36.0792 178.464 35.7796C176.78 35.5054 176.618 34.5101 176.567 34.1851C176.232 32.1082 174.914 30.3715 173.042 29.5337C171.014 28.6196 168.676 28.904 166.378 30.3715C162.793 33.068 157.564 35.4546 152.538 37.3436C151.392 36.0284 150.18 34.698 148.978 33.3777C146.29 30.4325 143.755 27.6548 142.68 25.7455C142.335 25.126 141.802 23.9936 142.183 23.3791C142.685 22.5768 144.794 22.1553 147.492 22.2874C149.567 22.4194 150.54 21.5561 151.027 20.83C151.915 19.5046 151.783 17.5293 150.647 15.1274C149.501 12.7052 147.847 11.0802 146.108 10.6587C144.916 10.3744 143.76 10.6435 142.74 11.4204C140.676 13.0149 139.363 13.4872 137.025 12.1415C135.549 11.2833 134.444 9.13533 133.759 7.39865C133.11 7.65255 132.511 7.90137 132.025 8.13496C131.822 8.23144 131.604 8.30761 131.401 8.39902C132.187 10.3794 133.592 13.0809 135.762 14.3403C139.642 16.5898 142.203 15.0512 144.292 13.4364C144.698 13.1216 145.094 13.0149 145.52 13.1266C146.478 13.3551 147.568 14.5383 148.365 16.209C149.191 17.9609 149.181 19.0273 148.923 19.4132C148.694 19.7484 147.999 19.7534 147.629 19.7484C143.663 19.5351 141.102 20.3069 140.032 22.0335C139.216 23.3487 139.363 25.0142 140.473 26.9845C141.686 29.1477 144.323 32.032 147.112 35.089C148.04 36.1046 149.019 37.1761 149.977 38.2678C144.754 40.0858 140.108 41.2943 138.262 41.6498C133.302 42.5994 131.948 42.0357 131.578 41.6092C131.274 41.2588 131.472 40.4869 131.614 40.0553C132.43 37.5925 132.111 35.5003 130.696 34.1546C129.215 32.748 125.964 31.6563 118.94 34.4187C114.285 36.2519 111.805 38.5217 111.566 41.1674C111.379 43.3103 112.783 44.9809 114.046 45.7579C114.564 46.0778 115.289 46.3672 116.06 46.6618C116.754 46.9258 118.205 47.4844 118.382 47.7789C118.382 47.784 118.276 48.368 116.425 49.6222C111.84 52.7249 98.4669 53.4206 93.6439 53.578C93.8417 54.2178 94.0446 54.8526 94.2677 55.4162C93.5121 55.5686 92.5941 55.7412 91.5748 55.924C92.5586 59.9052 93.9482 64.4602 95.7131 67.5882C96.347 68.7054 96.9657 70.2237 96.3419 71.1174C95.5153 72.3108 92.4572 72.7322 88.8819 72.1533C86.0419 71.6811 83.3084 72.5088 81.4015 74.4131C79.4287 76.3782 78.5716 79.227 79.0484 82.2382C79.662 86.0874 81.7565 90.4595 85.0631 91.5513C86.5541 92.0439 88.9072 92.0591 91.6306 89.3881C93.3751 87.6819 95.3784 87.1334 97.4424 87.8291C100.282 88.7838 102.707 91.9525 103.214 95.3497C103.498 97.2793 103.361 100.174 103.198 103.261C92.1479 103.789 77.8059 108.248 74.6464 109.832C72.3744 110.97 71.1471 112.361 70.9899 113.971C70.8935 114.986 71.2181 116.535 73.3075 118.124C73.7081 118.439 74.3573 119.074 74.1544 119.866C73.8704 120.994 71.9889 122.451 67.5616 123.157C61.7649 124.091 59.7364 123.329 59.0416 122.542C58.504 121.923 58.4685 120.821 58.9351 119.267C59.569 117.17 59.4422 115.362 58.5446 113.91C57.1398 111.615 54.2947 110.873 52.2814 110.518C50.0601 110.137 42.6051 110.624 34.0699 111.33C34.2575 105.638 34.1206 99.671 33.3801 96.7106C32.5687 93.4606 30.9661 92.2165 29.7642 91.7392C28.2276 91.1298 26.412 91.4091 24.6624 92.5466C24.2769 92.8005 23.7292 93.0595 23.359 92.836C22.6541 92.445 21.9897 90.6373 22.0861 87.494C22.1926 83.8531 23.501 82.5836 23.9016 82.284C24.2769 81.9945 24.5356 81.9894 24.5812 81.9996L25.0123 82.1824C26.5641 82.8628 29.7845 84.2593 31.9551 82.6648C33.3091 81.6746 33.8467 79.8059 33.5678 77.1146C33.1621 73.2248 33.6033 68.6292 34.1256 65.0848C35.1906 64.8207 36.2607 64.5465 37.3764 64.1961C37.7821 64.0692 38.1016 63.9422 38.4871 63.8153C36.1745 64.0032 34.0344 64.2723 32.3506 64.643C32.3506 64.643 32.2289 62.4747 32.5484 59.4634C32.3963 60.1693 32.1478 61.3778 31.8841 62.9672C28.6434 63.6274 25.4991 63.9117 21.9897 63.8153C21.1479 63.795 20.0575 63.6324 19.6467 63.0028C18.9874 61.9872 19.8851 59.7935 20.3821 58.5849C20.9704 57.1072 21.1174 54.8577 20.0321 53.4003C19.4794 52.6589 18.3738 51.8058 16.3401 51.9886C11.4056 52.4405 11.0912 56.6146 10.6551 62.3985C10.5486 63.7746 10.011 64.0438 9.8335 64.1352C8.43886 64.8563 5.07143 63.4953 3.0885 62.2715C2.88057 63.1297 2.61686 63.9625 2.42921 64.8258C3.7275 65.5519 6.43564 66.8824 8.84964 66.8824C9.60528 66.8824 10.3356 66.7503 10.9796 66.4254C11.8925 65.9633 13.0082 64.9273 13.1857 62.6118C13.7182 55.5635 14.3471 54.746 16.5734 54.5428C17.6435 54.4616 17.9123 54.8221 17.9985 54.9389C18.4346 55.528 18.3687 56.8229 17.9275 57.9197C17.3494 59.3314 16.1424 62.2766 17.5269 64.4094C18.3332 65.6535 19.8141 66.3136 21.9238 66.3746C25.3216 66.4761 28.3848 66.2172 31.4885 65.6484C31.0118 69.1929 30.6568 73.56 31.0524 77.3938C31.2299 79.0797 31.0219 80.2274 30.4691 80.6336C29.465 81.375 26.9699 80.2832 26.0367 79.8719L25.4839 79.6383C24.6015 79.3133 23.5466 79.4809 22.5932 80.1258C21.5181 80.8469 19.7025 82.7562 19.5605 87.433C19.4439 91.4142 20.3263 94.0497 22.1216 95.0602C22.8011 95.4411 24.2059 95.8879 26.0469 94.6946C26.6504 94.3036 27.8219 93.7247 28.8463 94.1157C29.7744 94.4813 30.4945 95.5985 30.9306 97.3402C31.5849 99.9706 31.7319 105.815 31.5341 111.559C31.1639 111.589 30.7988 111.62 30.4286 111.65C24.7334 112.158 18.1963 110.071 16.7408 108.486C15.1281 106.735 14.5905 103.708 15.5186 101.591C15.9496 100.595 15.9344 99.4882 15.4729 98.3863C14.5499 96.1977 12.0497 94.4864 10.9137 94.0548C10.1226 93.7602 7.43471 92.9021 5.81693 94.3595C4.81279 95.2583 4.54907 96.6953 5.03593 98.6351C5.16779 99.1785 5.44671 100.296 5.609 101.174C4.43243 100.367 2.35314 98.5488 0.456428 96.3754C0.573071 97.7566 0.725215 99.1277 0.892572 100.494C2.30243 101.849 3.61593 102.916 4.4375 103.444ZM176.673 93.1255C178.524 95.4411 180.391 96.5582 181.943 96.416C184.301 96.284 185.7 94.0294 186.943 92.0439C187.516 91.1146 188.114 90.1549 188.622 89.7791C189.037 89.4693 189.23 89.5506 189.337 89.5861C190.239 89.9568 191.457 92.3029 191.948 95.5985C192.364 98.4066 191.791 100.362 191.041 101.047C190.731 101.337 190.381 101.413 189.93 101.306C188.221 100.905 185.462 101.062 183.342 102.875C182.008 104.013 180.487 106.206 180.766 110.249C180.974 113.275 182.475 115.657 184.057 118.18C185.006 119.689 185.954 121.232 186.654 122.954C178.6 129.393 170.395 134.135 168.148 134.648C166.089 135.121 165.678 134.811 165.638 134.765C165.471 134.592 165.166 133.81 166.023 130.22C166.536 128.088 165.689 126.854 164.887 126.188C161.85 123.665 154.126 125.518 150.667 127.067C147.127 128.656 143.917 131.932 143.035 134.857C142.538 136.512 142.918 137.624 143.319 138.264C144.069 139.452 145.464 139.99 146.579 140.427C146.752 140.493 146.97 140.574 147.168 140.661C146.934 140.859 146.574 141.138 146.006 141.509C141.366 144.54 131.695 146.5 119.473 146.896C117.398 146.962 115.223 147.181 113.037 147.455C112.428 145.982 112.028 144.347 111.921 142.499C111.789 140.224 112.499 138.269 114.041 136.685C116.638 134.029 121.101 132.891 123.357 133.023C125.67 133.115 128.018 132.917 129.641 131.109C131.183 129.388 131.654 126.559 131.086 122.466C130.615 119.074 129.357 117.033 127.349 116.398C123.829 115.291 119.797 119.105 118.22 120.801C117.941 121.105 115.405 123.746 112.423 123.766C112.413 123.766 112.398 123.766 112.388 123.766C110.851 123.766 109.391 123.05 108.047 121.638C105.217 118.673 105.303 111.818 105.602 105.754C105.658 105.754 105.714 105.754 105.775 105.754C116.663 105.866 128.86 102.647 132.836 100.225C135.645 98.5133 136.994 96.7613 136.979 94.8825C136.964 93.1763 135.787 91.6224 133.465 90.2615C131.948 89.3728 131.974 88.535 131.984 88.2557C132.035 86.4428 134.753 83.8378 138.749 81.7914C142.801 79.7145 147.518 79.1711 149.272 80.6031C149.506 80.791 150.206 81.3598 149.729 83.0761C149.11 85.3257 149.333 87.0471 150.403 88.1947C152.031 89.9365 154.785 89.4185 155.241 89.3221C161.875 87.1081 167.23 84.696 171.749 82.284C173.002 86.4835 174.548 90.4697 176.673 93.1255ZM98.2539 85.4272C95.2719 84.4269 92.3 85.1886 89.8606 87.5752C88.4001 89.0123 87.0511 89.5404 85.8644 89.1443C83.6836 88.4233 82.0506 84.9245 81.5587 81.8422C81.2139 79.6485 81.8072 77.602 83.1917 76.2208C84.5407 74.8751 86.4121 74.3318 88.4761 74.6619C90.2562 74.9564 96.2659 75.6775 98.4212 72.5748C99.5319 70.9854 99.3594 68.8882 97.9191 66.3441C96.4028 63.6629 95.1552 59.7224 94.2322 56.1068C99.6384 55.919 112.824 55.1217 117.83 51.7296C119.361 50.6937 121.096 49.282 120.893 47.525C120.685 45.7223 118.702 44.9657 116.952 44.2954C116.349 44.0669 115.771 43.8536 115.365 43.6048C114.842 43.2849 113.991 42.4572 114.082 41.401C114.219 39.8623 116.323 38.1815 119.863 36.7952C126.355 34.2308 128.449 35.546 128.941 36.0081C129.829 36.8511 129.484 38.41 129.2 39.2631C128.5 41.3553 129.068 42.6095 129.666 43.29C131.38 45.2501 135.219 44.8235 138.734 44.1532C140.742 43.7724 145.976 42.4013 151.742 40.3397C154.08 43.1427 156.017 45.8747 156.342 47.8145C156.768 50.3535 156.616 50.9831 156.717 50.9831H156.722C156.59 51.0289 156.104 50.9831 155.749 50.9527C153.806 50.7902 150.439 51.0492 148.715 53.6643C147.3 55.8174 147.386 58.7982 148.988 62.5356C150.88 66.9687 153.517 68.1976 155.394 68.4566C158.279 68.8679 160.764 67.1972 161.662 66.0699C161.844 65.8414 162.052 65.5469 162.286 65.227C162.955 64.2875 164.208 62.5407 165.116 62.5407C165.618 62.5407 166.165 63.1957 166.444 63.5868C167.489 65.0391 168.453 69.1218 169.477 73.4533C169.954 75.4744 170.476 77.6376 171.054 79.8059C166.591 82.223 161.251 84.6554 154.597 86.8795C154.166 86.9659 152.817 87.0725 152.265 86.4631C151.854 86.0214 151.823 85.0616 152.183 83.7617C152.98 80.8773 151.712 79.3184 150.885 78.6379C147.954 76.2462 141.99 77.2821 137.598 79.5317C135.184 80.7707 129.57 84.0917 129.458 88.1897C129.423 89.383 129.869 91.0943 132.192 92.4552C133.647 93.3083 134.449 94.1766 134.454 94.9028C134.464 95.7661 133.394 96.9137 131.527 98.0512C127.993 100.209 116.658 103.221 106.576 103.221C106.297 103.215 106.023 103.215 105.744 103.215C105.912 100.067 106.038 97.1117 105.724 94.979C105.075 90.622 102.002 86.6917 98.2539 85.4272ZM33.4156 120.841C33.6439 118.927 33.8315 116.489 33.9583 113.905C40.0136 113.402 49.7051 112.671 51.8401 113.031C54.244 113.458 55.735 114.184 56.3841 115.255C56.8862 116.063 56.9217 117.175 56.5059 118.546C55.7654 120.983 55.9784 122.898 57.1246 124.218C58.2454 125.498 60.1573 126.127 63.0176 126.127C64.4274 126.127 66.0706 125.98 67.9521 125.675C74.6159 124.609 76.2388 121.974 76.609 120.491C77.0046 118.901 76.3453 117.266 74.834 116.114C73.9262 115.423 73.4596 114.743 73.5053 114.214C73.5661 113.564 74.3928 112.798 75.7671 112.107C78.6832 110.645 92.5434 106.379 103.056 105.815C102.727 112.559 102.686 119.704 106.206 123.395C108.067 125.345 110.055 126.254 112.439 126.305C116.394 126.275 119.493 123.152 120.071 122.527C122.551 119.861 125.188 118.383 126.578 118.82C127.815 119.211 128.343 121.212 128.566 122.817C129.022 126.087 128.748 128.301 127.749 129.413C126.867 130.398 125.361 130.566 123.433 130.489C120.781 130.474 115.517 131.52 112.221 134.912C110.162 137.025 109.203 139.63 109.375 142.646C109.487 144.561 109.923 146.231 110.501 147.785C101.571 149.161 92.7818 151.771 89.0441 153.31C86.4171 154.392 84.9921 155.783 84.8146 157.464C84.632 159.16 85.7325 160.836 88.0806 162.455C88.6232 162.831 88.7399 163.075 88.7601 163.075C88.5421 163.639 85.9861 164.994 79.7431 165.365C73.8603 165.731 72.1005 163.761 71.6897 163.146C71.2941 162.557 71.2231 161.917 71.4919 161.348C72.2476 159.759 72.3946 158.358 71.923 157.179C71.5325 156.189 70.7261 155.433 69.5901 154.996C67.7492 154.285 56.7746 153.32 47.2049 153.945C45.4552 154.051 43.8222 153.909 42.2551 153.665C40.4396 150.878 39.05 148.151 38.7508 145.957C38.6139 144.957 38.5885 143.636 39.2478 143.083C40.4649 142.062 43.9034 143.139 45.7494 143.707L46.5151 143.946C48.8683 144.657 50.8005 144.352 51.972 143.134C53.3717 141.676 53.4782 139.173 52.2864 135.674C51.1758 132.404 49.6138 130.479 47.5193 129.779C45.4299 129.083 43.0311 129.687 40.1809 131.632C39.9223 131.81 39.1311 132.358 37.7517 131.525C35.2769 130.017 32.8882 125.264 33.4156 120.841Z" fill="#BEBEBE"/>
<path d="M92.3659 47.2L92.2797 47.2153C92.584 49.4344 93.0303 51.5925 93.6084 53.4815C92.8122 49.9777 92.3761 47.261 92.3659 47.2Z" fill="#BEBEBE"/>
<path d="M112.16 192.411C111.485 192.411 110.861 192.375 110.309 192.304C108.757 192.091 107.955 191.618 107.869 190.852C107.611 188.714 113.575 187.932 114.259 187.851C115.913 187.647 117.5 187.627 118.737 187.795C120.289 188.008 121.09 188.48 121.177 189.247C121.273 190.009 120.609 190.659 119.148 191.233C117.992 191.69 116.45 192.05 114.787 192.248C113.869 192.355 112.981 192.411 112.16 192.411ZM109.178 190.689C109.659 191.009 111.653 191.339 114.629 190.989C117.596 190.633 119.463 189.826 119.858 189.399C119.376 189.079 117.383 188.749 114.401 189.105C111.44 189.465 109.568 190.268 109.178 190.689Z" fill="#767676"/>
</svg>
